<svg width="340" height="255" viewBox="0 0 340 255" fill="none" xmlns="http://www.w3.org/2000/svg">
<path fill-rule="evenodd" clip-rule="evenodd" d="M123.554 64.5705C123.32 68.3994 123.086 72.2278 122.852 76.0567C124.359 75.6228 133.945 72.8022 133.353 75.662C132.928 77.7132 130.233 79.9322 128.86 81.3603C127.596 82.6751 126.294 83.9558 124.96 85.1989C127.413 84.2599 129.886 83.3707 132.377 82.539C134.262 81.9095 136.161 81.2952 138.092 80.8234C138.809 80.6481 140.745 79.9332 141.422 80.4206C143.202 81.7016 133.545 91.1356 132.222 92.4654C134.093 91.5955 136.008 90.8052 137.956 90.1272C139.362 89.6378 143.707 87.7668 144.952 89.3646C146.284 91.0738 142.984 94.9988 142.069 96.2432C140.757 98.0266 139.336 99.7372 137.845 101.373C144.042 106.939 151.325 111.894 159.076 114.973C164.759 117.231 170.341 117.806 176.337 116.567C182.498 115.294 188.406 112.852 194.022 110.061C197.321 108.421 200.576 106.647 203.677 104.655C202.398 103.1 201.157 101.512 199.951 99.9006C198.23 97.5996 196.115 95.0855 195.134 92.3462C194.173 89.6654 197.776 90.1887 199.505 90.3344C202.007 90.5453 204.504 90.9925 206.956 91.5277C205.222 90.3215 203.519 89.0671 201.851 87.7718C199.676 86.0838 196.775 84.1752 195.352 81.7468C194.1 79.6115 196.847 80.1507 198.117 80.4303C201.146 81.0976 204.093 82.2345 206.982 83.3435C209.097 84.1556 211.2 85.0063 213.282 85.9021C211.99 84.7785 210.741 83.6012 209.54 82.3806C207.926 80.74 205.75 78.7362 205.027 76.4771C203.554 71.8758 213.464 75.3465 215.156 76.0567C214.843 71.2904 214.531 66.5241 214.219 61.7578C201.096 65.2495 187.974 68.7418 174.851 72.2337C173.433 72.6113 171.658 73.433 170.179 73.4769C168.84 73.517 167.222 72.9137 165.915 72.6644L142.168 68.1272C135.964 66.9415 129.759 65.7561 123.554 64.5705Z" fill="#FFB1A3"/>
<path fill-rule="evenodd" clip-rule="evenodd" d="M264.594 228.509C263.178 229.32 261.518 229.946 259.944 230.365C259.02 230.612 257.492 231.374 256.68 230.676C256.291 230.341 256.201 229.579 255.971 229.138C255.607 228.439 255.09 227.836 254.605 227.218C253.43 225.721 252.207 224.277 250.928 222.869C250.322 222.202 249.214 220.645 248.146 220.747C246.815 220.875 246.847 222.718 247.18 223.659C248.243 226.657 251.458 229.27 253.559 231.528C253.025 232.35 250.092 232.252 249.277 232.06C248.034 231.766 247.908 230.881 247.34 229.868C246.013 227.501 243.32 226.176 241.106 224.785C240.299 224.277 238.584 222.871 237.532 223.225C236.535 223.56 236.578 224.833 236.896 225.665C237.375 226.921 238.739 227.793 239.748 228.587C241.094 229.646 242.324 230.798 243.445 232.094C241.829 232.226 240.219 232.454 238.607 232.587C236.658 232.747 235.033 231.678 233.239 231.072C231.571 230.508 229.91 230.032 228.27 229.382C226.429 228.653 224.501 228.4 222.644 227.76C215.356 225.25 208.215 222.093 201.193 218.911C197.846 217.394 194.569 215.877 191.082 214.691C188.541 213.826 184.548 212.102 183.94 209.075C183.62 207.476 184.788 205.756 184.96 204.158C185.162 202.278 185.003 200.21 184.431 198.406C183.926 196.818 183.089 195.346 182.43 193.821C181.662 192.043 182.35 192.071 183.842 191.869C185.627 191.627 187.711 190.622 189.39 189.967C191.323 189.213 193.24 188.159 195.01 187.075C196.612 186.095 198.006 184.831 199.281 183.459C200.578 182.063 201.418 180.409 202.672 178.978C207.3 184.67 211.699 190.449 216.617 195.895C218.938 198.465 221.462 200.591 224.323 202.545C225.517 203.362 226.702 204.294 228.003 204.939C229.63 205.747 231.45 206.248 233.122 206.985C239.535 209.811 245.655 212.899 251.638 216.545C254.532 218.309 256.961 220.331 259.51 222.543C260.303 223.232 266.801 227.246 264.594 228.509ZM189.367 181.878C188.331 182.348 187.343 182.958 186.237 183.259C186.551 181.352 188.33 178.475 190.612 178.792C191.484 178.912 192.141 179.589 191.759 180.523C191.41 181.371 190.105 181.544 189.367 181.878ZM117.232 130.15C116.057 130.799 114.963 131.177 114.274 129.784C114.784 129.682 117.102 129.373 117.232 130.15ZM115.276 126.214C114.368 125.939 115.094 125.649 115.407 125.317C115.65 125.059 116.456 124.151 116.738 124.002C117.983 123.342 118.946 125.797 119.541 126.594C118.132 126.468 116.648 126.63 115.276 126.214ZM124.984 134.713C123.263 135.005 123.454 132.852 123.505 131.761C123.868 132.204 126.326 134.486 124.984 134.713ZM130.687 130.995C128.589 131.349 127.202 127.724 127.579 126.138C127.909 124.741 129.535 123.962 130.83 123.756C132.084 123.556 133.831 123.828 134.204 125.275C134.533 126.554 132.085 130.759 130.687 130.995ZM180.35 185.714C178.842 186.178 177.365 186.236 175.849 186.691C174.13 187.207 172.539 187.161 170.816 187.512C170.115 187.655 168.224 188.676 167.541 188.448C166.863 188.222 165.883 186.12 165.494 185.574C168.542 184.307 171.142 182.671 173.152 180.001C174.749 177.878 176.462 174.698 175.457 171.957C174.324 168.868 170.416 168.197 167.811 169.488C166.579 170.098 165.357 170.857 164.341 171.787C163.179 172.85 162.722 174.011 161.969 175.322C161.208 176.648 160.674 175.91 159.913 174.784C159.264 173.821 159.348 172.849 158.536 171.9C158.122 171.415 157.48 170.947 157.264 170.321C157.127 169.925 157.416 169.221 157.156 168.909C156.79 168.47 156.345 168.985 156.039 168.594C155.816 168.309 155.889 167.66 155.659 167.304C155.46 167.101 155.238 166.928 154.993 166.785C154.695 166.638 154.641 166.454 154.83 166.233C154.593 165.795 154.821 165.647 154.315 165.115C153.525 164.284 152.805 163.489 152.243 162.509C151.987 162.06 152.012 161.395 151.693 161.007C151.255 160.474 150.525 160.554 150.149 159.894C149.813 159.306 150.038 158.278 149.485 157.744C149.193 157.661 148.901 157.579 148.609 157.498C148.39 157.285 148.262 157.026 148.225 156.722C147.918 156.249 147.857 155.693 147.469 155.193C146.727 154.238 145.728 153.355 145.073 152.348C144.383 151.288 144.749 151.11 145.946 150.731C147.026 150.389 148.012 150.071 149.013 149.489C153.641 146.796 158.028 139.652 150.683 137.47C147.957 136.66 145.718 134.482 142.695 135.338C141.385 135.709 140.142 136.499 139.165 137.437C138.489 138.085 137.864 139.819 137.035 140.151C135.544 140.748 136.174 139.257 135.751 138.571C135.549 138.244 134.736 137.867 134.434 137.57C134.081 137.221 133.739 136.78 133.493 136.348C133.037 135.547 132.758 135.101 132.101 134.448C131.853 134.202 130.616 132.929 131.732 133.096C131.28 131.718 131.939 131.511 132.851 130.505C133.921 129.323 135.027 127.681 135.033 126.025C135.045 122.846 131.278 121.421 128.912 123.308C128.431 123.692 125.583 127.399 126.166 125.035C126.48 123.76 129.389 120.432 130.737 121.293C129.226 119.091 125.754 124.438 124.944 125.532C124.254 124.262 124.206 123.269 123.064 122.285C122.135 123.776 122.625 122.147 122.421 121.816C121.978 121.1 122.221 121.918 121.981 121.664C121.682 121.348 121.212 121.098 120.893 120.679C120.349 121.419 120.566 120.623 120.399 120.347C120.009 119.702 120.16 119.328 119.491 118.766C119.005 118.358 118.046 117.724 117.391 117.666C116.635 117.599 116.426 117.889 115.656 117.675C114.677 117.402 113.445 116.984 113.919 118.622C114.263 119.812 115.662 120.488 115.969 121.704C116.277 122.928 115.067 124.161 114.48 125.165C113.726 126.452 113.109 126.347 111.743 126.637C110.87 126.823 109.705 127.22 110.454 128.279C110.989 129.035 112.242 128.876 112.947 129.324C113.937 129.952 113.923 131.502 115.187 131.771C116.578 132.068 117.375 130.519 118.548 130.145C119.382 129.879 121.966 129.909 122.622 130.535C123.517 131.388 122.744 133.019 122.969 134.079C123.304 135.651 124.367 135.747 125.712 135.797C127.368 135.859 127.95 137.449 128.841 138.71C130.926 141.664 132.739 144.813 134.876 147.727C135.822 149.018 137.206 150.166 137.98 151.567C138.936 153.296 137.609 154.294 136.463 155.535C134.966 157.158 133.848 159.004 132.549 160.777C131.396 162.353 129.962 161.961 128.118 161.961C128.529 161.114 129.023 160.585 130.034 160.688C128.977 159.397 128.131 160.874 127.446 161.691C126.454 162.874 125.16 163.159 123.886 163.937C123.435 164.212 120.98 165.996 121.726 166.605C121.811 166.674 125.875 164 126.338 163.755C126.338 164.742 126.122 165.768 126.261 166.749C126.362 167.469 126.868 168.22 126.76 168.968C126.556 170.381 124.73 171.494 123.947 172.594C123.357 173.423 123.499 174.076 123.199 174.966C122.925 175.777 123.069 175.531 122.386 175.782C120.997 176.292 118.659 176.017 117.401 175.291C116.62 174.841 116.021 174.129 115.386 173.502C114.909 173.029 113.707 172.221 113.574 171.559C113.346 170.42 115.608 168.303 116.056 167.127C117.32 163.81 115.152 161.232 111.778 161.044C112.818 160.242 114.107 160.846 115.203 161.152C113.329 158.556 110.129 160.692 108.539 162.457C107.453 159.711 106.93 156.815 106.266 153.952C105.814 152.003 104.094 148.524 104.861 146.516C105.232 145.546 106.279 145.005 107.004 144.332C107.827 143.568 108.532 142.654 109.133 141.707C110.551 139.478 111.37 136.663 109.417 134.466C110.011 134.369 110.604 134.271 111.197 134.174C110.232 133.267 108.71 133.709 107.459 133.44C106.664 133.27 104.379 133.38 103.848 132.931C103.211 132.39 103.619 129.903 103.642 129.167C103.695 127.447 103.838 125.793 104.028 124.083C104.208 122.468 104.172 120.723 104.506 119.136C104.777 117.849 105.643 117.456 106.642 116.698C109.03 114.883 110.976 112.676 110.16 109.549C110.449 109.503 110.738 109.457 111.027 109.412C110.093 108.736 108.884 108.982 107.844 108.624C108.799 105.938 110.909 101.216 114.337 100.962C114.454 102.163 114.374 103.591 115.184 104.585C116.106 105.716 117.725 105.831 118.975 105.232C120.109 104.688 121.173 103.536 121.695 102.398C122.049 101.627 121.985 100.324 122.606 99.7136C123.438 98.8942 129.176 99.3886 129 100.771C128.896 101.584 127.362 102.95 126.933 103.671C126.149 104.989 125.52 106.415 125.232 107.93C124.795 110.229 125.048 113.265 127.383 114.474C130.039 115.849 133.276 114.101 135.454 112.59C136.65 111.761 137.808 110.845 138.901 109.884C139.483 109.372 140.068 108.845 140.581 108.263C140.959 107.834 141.262 107.142 141.728 106.82C142.829 106.06 143.909 107.349 144.841 108C146.359 109.061 147.869 110.068 149.499 110.951C152.805 112.742 155.828 115.115 158.752 117.47C161.692 119.84 164.725 122.278 167.107 125.23C165.664 126.117 165.921 126.348 165.279 127.931C164.824 129.055 164.196 130.011 164.124 131.259C163.999 133.413 165.382 135.249 167.481 135.726C168.655 135.993 169.773 135.78 170.861 135.299C171.706 134.927 172.548 134.008 173.431 133.78C175.073 133.357 176.387 136.458 177.307 137.55C181.393 142.402 185.713 147.061 189.561 152.111C189.987 152.67 191.253 153.762 191.356 154.503C191.504 155.566 189.831 156.58 189.138 157.189C188.773 157.509 184.909 161.143 186.207 161.721C186.577 161.886 187.659 159.656 187.93 159.465C188.943 158.751 188.177 160.151 188.116 160.858C187.965 162.617 189.173 163.575 190.871 163.352C192.683 163.114 194.295 161.684 195.417 160.333C196.821 161.96 199.018 164.42 199.424 166.594C199.684 167.983 198.482 171.382 200.725 171.665C201.067 171.708 202.307 170.789 202.538 171.311C202.73 171.746 201.391 172.491 201.198 172.635C200.372 173.251 199.873 173.911 199.207 174.658C198.425 175.534 197.356 176.272 196.475 177.111C195.548 177.996 193.714 180.398 192.49 179.237C191.875 178.654 192.037 177.892 191.052 177.549C190.155 177.238 189.018 177.633 188.185 177.979C187.246 178.368 184.155 179.787 183.812 180.956C183.339 182.568 185.894 180.63 186.348 180.347C185.83 181.662 185.544 183.566 184.224 184.333C183.128 184.97 181.552 185.345 180.35 185.714ZM162.829 175.769C163.706 172.949 168.879 167.922 172.148 169.495C168.338 170.293 165.314 172.901 162.829 175.769ZM164.763 183.843C163.488 183.132 163.557 181.068 163.112 179.861C162.856 179.168 162.345 178.662 162.496 177.893C162.671 176.992 163.821 175.99 164.433 175.34C166.359 173.293 169.748 170.497 172.848 170.967C176.794 171.564 174.119 176.861 172.775 178.685C171.63 180.24 167.218 185.211 164.763 183.843ZM155.559 180.395C151.292 180.11 147.039 179.728 142.83 178.945C141.338 178.667 140.088 178.708 140.942 176.993C141.224 176.426 142.923 172.878 143.307 172.979C143.535 173.04 143.483 175.479 143.55 175.758C143.851 177.014 144.697 178.184 146.124 178.105C148.457 177.974 149.962 174.957 151.19 173.337C152.175 174.661 152.887 176.131 153.877 177.433C154.35 178.055 155.997 179.502 155.559 180.395ZM130.543 163.645C129.827 165.288 128.387 166.85 127.386 168.339C126.82 167.14 126.421 164.389 127.764 163.503C128.273 163.168 130.995 162.606 130.543 163.645ZM145.342 168.537C145.539 167.905 145.757 167.277 146 166.661C146.417 167.975 146.631 168.014 145.342 168.537ZM148.994 169.882C149.512 170.76 150.375 171.624 150.24 172.726C150.137 173.562 149.382 174.418 148.843 175C147.95 175.963 145.973 177.811 144.681 176.532C143.6 175.464 143.977 172.527 144.479 171.325C145.196 169.608 147.759 167.791 148.994 169.882ZM146.46 168.084C146.757 167.966 146.133 166.049 146.712 165.859C147.217 167.01 147.692 167.321 146.46 168.084ZM138.307 142.297C138.114 141.59 137.673 141.62 137.832 140.746C137.936 140.173 138.391 139.561 138.736 139.107C139.424 138.202 140.331 137.456 141.312 136.891C143.383 135.699 146.226 135.204 148.08 137.07C146.347 137.343 141.034 139.054 141 141.425C142.927 141.054 144.443 139.118 146.376 138.508C147.963 138.007 149.683 138.042 151.262 138.571C155.582 140.018 153.786 143.753 151.347 146.178C149.899 147.618 148.164 148.694 146.266 149.436C145.388 149.779 144.849 149.817 143.986 149.644C143.824 149.612 143.635 149.312 143.441 149.248C142.959 149.088 143.099 149.629 142.702 149.386C142.356 149.174 141.618 147.808 141.382 147.417C141.007 146.794 140.833 146.189 140.372 145.62C139.912 145.051 139.688 144.289 139.262 143.775C139.057 143.527 138.496 143.537 138.346 143.296C138.12 142.933 138.408 142.668 138.307 142.297ZM131.671 170.148C132.653 168.442 134.333 166.993 135.633 165.502C135.713 167.953 133.955 169.632 131.671 170.148ZM132.998 170.936C135.026 170.223 136.143 168.515 136.35 166.446C136.613 163.824 138.259 162.447 139.25 160.092C139.63 159.189 140.073 156.218 141.547 157.069C142.052 157.36 142.352 158.457 142.615 158.953C143.252 160.151 143.977 161.314 144.652 162.49C145.202 163.449 146.027 164.413 145.785 165.566C145.573 166.572 144.892 167.644 144.493 168.593C143.551 170.833 142.313 172.896 141.279 175.087C140.862 175.971 140.368 178.064 139.095 178.053C138.087 178.045 138.199 176.943 137.536 176.565C136.698 176.088 135.745 176.996 135.057 177.372C135.85 176.033 137.235 175.276 138.792 175.528C136.928 173.671 135.668 176.176 134.067 176.734C132.551 177.263 129.861 174.769 128.584 174.062C129.072 173.235 129.514 172.224 130.354 171.68C131.15 171.163 132.128 171.242 132.998 170.936ZM116.51 187.907C116.732 186.838 117.36 186.206 117.757 185.235C118.219 186.412 117.139 187.107 116.51 187.907ZM148.731 194.469C148.622 198.07 148.328 201.661 148.222 205.263C148.173 206.924 147.879 208.509 147.683 210.151C147.518 211.539 147.602 212.903 146.729 214.089C145.351 215.959 142.671 216.497 140.592 217.19C139.064 217.698 137.519 218.16 136.011 218.725C134.654 219.234 133.56 220.004 132.269 220.609C131.115 221.15 129.869 221.47 128.719 222.047C127.531 222.643 126.591 223.369 125.371 223.9C123.909 224.535 122.705 225.665 121.405 226.563C120.261 227.352 119.05 227.962 118.066 228.955C117.143 229.887 115.974 230.296 114.928 231.124C113.822 231.999 112.664 232.568 111.443 233.255C108.939 234.661 105.562 237.064 102.55 235.697C103.411 234.597 105.175 233.539 105.309 232.023C105.483 230.048 103.764 230.775 102.769 231.406C101.261 232.361 100.427 233.514 99.2793 234.787C97.9375 236.275 96.2425 235.274 94.6006 234.856C95.7232 233.845 96.8368 232.825 97.9574 231.813C98.9034 230.958 100.351 230.034 100.927 228.853C101.339 228.008 101.319 226.85 100.325 226.411C99.2135 225.921 97.9564 226.955 97.133 227.571C94.9476 229.206 93.5082 231.28 92.0732 233.555C91.3098 234.765 90.9582 234.673 89.5537 234.431C88.0656 234.174 86.5774 233.901 85.0769 233.721C87.0645 231.68 89.2858 229.468 90.8556 227.08C91.3643 226.306 92.0277 224.267 90.4781 224.079C89.8396 224.002 88.5683 225.307 88.0759 225.659C85.9233 227.198 83.8537 229.138 82.4273 231.385C81.9562 232.126 81.8084 232.951 80.8963 233.012C79.704 233.093 77.4887 231.955 76.3386 231.603C78.5366 228.832 80.7194 226.041 83.2876 223.597C85.6474 221.352 88.0012 219.721 90.761 217.998C93.7187 216.152 96.4739 214.027 99.1893 211.846C101.789 209.758 104.504 207.788 106.897 205.458C111.676 200.801 115.933 195.446 119.458 189.783C120.283 188.458 121.06 187.099 121.731 185.689C122.361 184.365 122.652 182.781 123.503 181.577C123.797 181.161 124.211 180.852 124.473 180.418C124.72 180.009 124.636 179.515 125.013 179.153C125.885 178.316 127.472 178.82 128.286 179.407C129.597 180.35 130.657 181.495 132.097 182.284C133.545 183.078 135.111 183.656 136.715 184.046C140.463 184.957 144.179 185.705 147.997 186.259C147.604 187.716 148.569 187.945 148.889 189.256C149.277 190.848 148.78 192.849 148.731 194.469ZM112.641 170.17C111.792 168.908 111.033 167.587 110.198 166.316C109.689 165.542 109.059 164.711 109.494 163.765C110.226 162.169 112.809 161.885 114.211 162.581C117.398 164.162 114.437 168.684 112.641 170.17ZM104.205 141.294C103.912 138.826 104.855 137.075 107.088 135.782C108.679 134.859 109.96 136.12 109.743 137.801C109.413 140.362 106.676 143.211 104.587 144.547C104.45 143.464 104.334 142.378 104.205 141.294ZM103.865 134.233C104.523 133.71 106.287 134.377 107.05 134.423C106.001 135.34 104.951 136.257 103.902 137.173C103.833 136.544 103.257 134.716 103.865 134.233ZM107.406 110.401C112.716 109.71 106.603 115.409 105.064 116.302C105.315 115.089 105.93 110.593 107.406 110.401ZM121.542 100.424C120.829 103.345 115.286 106.531 115.228 101.747C115.206 99.9643 116.208 100.109 117.669 99.9374C118.503 99.8401 121.949 98.7547 121.542 100.424ZM102.396 104.947C101.773 106.58 101.274 108.256 100.664 109.891C100.394 110.615 100.076 111.113 99.5731 111.686C99.1517 112.166 98.6504 112.287 98.667 113.045C99.1949 112.943 99.608 112.629 100.034 112.326C99.931 113.829 99.3998 115.446 99.1425 116.944C98.8343 118.741 98.5777 120.538 98.4824 122.36C98.2759 126.322 98.2742 130.269 98.3612 134.233C98.4057 136.253 98.4256 138.274 98.5345 140.291C98.589 141.295 98.6504 142.303 98.7746 143.301C98.825 143.703 99.1172 144.561 98.9366 144.938C98.2274 146.42 95.0857 142.35 93.7214 142.947C93.9176 141.82 93.465 142.067 92.709 141.512C92.3428 141.243 92.1044 140.786 91.7226 140.547C91.607 140.422 91.4798 140.311 91.341 140.214C91.1833 139.999 91.0167 140.022 90.8417 140.283C89.3044 139.364 88.9073 137.405 88.0822 136.088C87.6578 135.411 87.2478 135.305 87.1754 134.369C87.1126 133.553 87.2355 132.721 87.2023 131.902C87.1648 130.977 87.1106 129.958 86.8513 129.063C86.5505 128.024 86.1365 128.109 85.33 127.555C85.5783 127.446 85.7423 127.264 85.8217 127.007C85.564 127.053 84.7814 127.372 84.5869 127.143C84.2044 126.692 85.1068 126.632 85.3439 126.452C84.3322 126.003 84.55 125.634 84.9152 124.811C85.0185 124.577 85.1171 124.229 85.2051 124.033C85.397 123.604 85.5076 123.876 85.571 123.343C85.6311 122.834 85.1805 121.835 85.0477 121.293C84.8253 120.385 84.7021 119.6 84.902 118.653C85.064 117.887 85.5 117.193 85.5302 116.405C85.5388 116.184 85.2018 116.11 85.1971 115.897C85.1905 115.584 85.482 115.447 85.5577 115.159C85.7513 114.42 85.664 113.639 85.995 112.939C86.2928 112.309 86.8945 111.495 87.3202 110.946C87.6153 110.565 88.3395 110.136 88.4188 109.634C88.4713 109.301 87.953 109.339 87.9759 109.088C88.0075 108.749 88.2923 108.639 88.3704 108.386C88.5859 107.694 88.64 107.028 89.1968 106.498C89.8984 105.83 90.2028 106.11 90.2321 105.008C90.246 104.47 89.816 104.387 90.0465 103.767C90.1716 103.431 90.5408 103.232 90.7769 102.994C91.4782 102.287 91.951 101.658 92.4504 100.784C92.892 100.012 93.5962 99.5626 94.0488 98.8958C94.6378 98.0266 93.7569 97.5956 94.9526 97.3502C94.7826 96.8107 94.6019 96.3744 95.0492 95.9175C95.3314 95.6293 96.0469 95.8056 96.2966 95.4726C96.5828 95.0898 96.1598 94.183 96.5911 93.9346C96.9418 93.7331 97.4667 94.355 98.0179 94.0472C98.4376 93.8124 99.0717 92.5169 98.9366 92.0407C100.022 92.6513 99.7517 92.2306 100.271 91.4471C100.388 91.2714 100.741 91.2326 100.841 91.0553C101.042 90.7006 100.996 90.3394 101.285 90.0512C101.766 89.5717 102.554 89.6949 103.084 89.3523C103.522 89.0694 103.499 88.7642 103.848 88.4973C104.147 88.2692 104.637 88.2254 104.927 87.989C105.496 87.5258 105.502 87.037 106.213 86.6382C107.055 86.1661 107.801 85.7643 108.567 85.1385C109.067 84.7307 109.541 84.0076 110.125 83.7383C110.934 83.3661 111.563 83.3398 112.354 82.8086C112.925 82.4248 113.465 81.7913 114.026 81.4675C114.449 81.2238 114.746 81.2763 115.28 81.1252C116.239 80.8529 116.473 79.9485 117.256 79.5803C117.794 79.3276 118.576 79.559 119.167 79.4262C121.003 79.0138 122.818 78.1243 124.661 77.6316C126.911 77.0306 129.177 76.504 131.444 75.9724C129.361 78.7963 126.707 81.3443 124.016 83.5872C123.132 84.3233 118.291 87.6798 120.901 89.1132C121.948 89.6883 124.224 87.8302 125.069 87.376C126.772 86.4613 128.536 85.7291 130.32 84.9894C133.204 83.7931 136.96 81.6654 140.165 81.8367C138.214 84.2304 135.778 86.1518 133.547 88.2665C131.496 90.2096 128.406 92.0324 129.373 95.213C126.493 94.4802 123.906 93.6139 120.911 93.8058C119.569 93.8918 118.227 93.7304 116.892 93.9184C115.44 94.1236 114.072 94.6097 112.677 95.036C111.573 95.373 110.353 95.3996 109.337 95.9604C108.846 96.2316 108.239 96.6188 107.799 96.9551C107.21 97.4037 107.077 97.7009 106.615 98.2919C104.968 100.401 103.375 102.378 102.396 104.947ZM93.3867 144.864C93.2967 144.498 93.215 144.166 93.1118 143.749C94.0285 144.313 94.0285 144.313 93.3867 144.864ZM86.4582 133.238C86.3453 133.394 85.8705 133.444 85.7327 133.31C85.561 133.142 86.0123 132.489 86.0847 132.35C86.2636 132.487 86.6753 132.937 86.4582 133.238ZM84.4956 129.007C84.6168 128.561 84.7386 128.116 84.8598 127.67C85.0089 128.083 85.6809 128.54 85.6959 128.934C85.7052 129.194 84.6284 129.065 84.4956 129.007ZM84.885 129.618C85.9369 130.311 86.0471 131.128 86.0783 132.323C84.8196 131.906 85.0003 130.688 84.885 129.618ZM103.178 82.4503C103.072 82.7375 102.621 83.633 102.291 83.0068C102.186 82.8063 102.959 82.5327 103.178 82.4503ZM102.876 81.4742C103.136 81.2397 103.66 81.5313 103.955 81.342C104.161 81.2092 104.092 81.0744 104.189 80.9957C104.209 80.9801 104.489 80.4127 104.604 80.2838C104.807 80.0577 105.249 79.9166 105.495 79.7121C106.184 79.1413 106.573 78.3903 107.007 77.6266C107.524 76.7148 107.689 76.6092 108.523 76.1915C109.098 75.904 109.543 75.5517 110.011 75.0623C110.55 74.4989 110.511 74.0954 110.953 73.4795C111.172 73.1757 111.487 73.1379 111.742 72.8928C112.047 72.5996 112.202 72.1892 112.485 71.8934C112.607 71.7652 112.998 71.7656 113.072 71.656C113.166 71.5172 113.24 70.9624 113.328 70.8601C113.496 71.0879 113.666 71.3157 113.834 71.5434C114.499 70.3744 114.984 69.4085 116.095 68.6305C117.263 67.8134 118.27 66.6181 119.477 65.8866C119.748 65.7223 120.301 65.6532 120.508 65.4108C120.858 65.0008 120.555 64.6362 120.81 64.2879C121.1 63.8934 121.662 64.2129 122.031 64.0429C122.497 63.8274 122.631 63.1985 123.231 63.2676C121.256 65.6041 121.281 69.2391 121.176 72.1574C121.131 73.4148 121.923 74.0486 120.754 74.9713C119.759 75.7563 118.357 75.5232 117.181 76.0398C115.705 76.6886 114.126 77.0336 112.62 77.599C111.061 78.1837 109.809 79.2074 108.309 79.8847C106.987 80.4817 106.084 81.3304 104.874 82.0675C104.425 82.3414 103.728 82.7392 103.192 82.4118C102.857 82.2066 102.438 81.8696 102.876 81.4742ZM125.181 61.8843C125.266 61.5526 126.952 60.68 127.367 60.3955C127.989 59.9675 128.91 58.9229 129.605 59.338C129.846 58.3738 130.785 57.301 131.615 57.0968C132.536 56.8697 134.115 56.0804 135.02 55.3911C135.285 55.1899 135.372 54.8957 135.683 54.7071C136.226 54.3781 136.763 54.5577 137.286 54.1095C137.365 54.0411 138.088 52.8481 138.116 52.8597C138.153 52.9875 138.187 53.117 138.216 53.2472C138.764 52.943 139.253 52.7013 139.594 52.3135C139.672 52.2255 139.169 51.9968 139.328 51.8224C139.522 51.6089 139.956 51.8477 140.152 51.6451C139.542 54.6746 139.996 58.574 143.07 60.1099C139.415 60.5047 135.845 59.406 132.144 60.0807C130.373 60.4041 128.573 60.9344 126.962 61.7492C125.975 62.2486 124.712 64.0365 123.73 63.1683C124.12 62.6483 124.715 62.3253 125.181 61.8843ZM142.915 53.1688C144.282 51.4971 146.355 50.8356 148.443 51.4343C150.888 52.1352 149.857 53.8432 149.487 55.7397C148.782 54.7055 147.254 53.6798 145.953 53.6486C144.108 53.6048 144.805 55.1418 145.913 55.6926C146.92 56.1926 148.647 56.3321 149.368 57.2422C150.07 58.1274 149.801 59.5754 149.914 60.6196C149.368 60.5383 148.823 60.4573 148.277 60.3762C148.735 57.9395 146.72 57.8216 144.842 57.1343C142.943 56.4407 141.36 55.0714 142.915 53.1688ZM149.037 47.1684V49.4298C148.278 48.9965 147.517 48.5632 146.757 48.1299C147.517 47.8095 148.278 47.4888 149.037 47.1684ZM155.147 65.2382C157.685 65.9261 160.205 66.6536 162.645 67.6026C163.531 67.9472 164.501 68.0691 165.37 68.4582C166.196 68.8284 166.321 68.7899 166.026 69.5144C165.203 71.5444 163.251 71.1938 161.542 70.8834C158.866 70.3973 156.245 69.7232 153.602 69.0891C151.019 68.4698 148.381 68.0638 145.837 67.2871C143.227 66.4909 140.683 65.7365 137.997 65.2106C137.213 65.0572 131.014 64.4884 131.061 63.8406C134.965 63.3333 138.985 63.833 142.907 63.8858C146.983 63.9406 151.194 64.1667 155.147 65.2382ZM151.702 57.386C151.75 55.9901 151.77 54.5899 151.943 53.2027C153.105 54.6364 154.153 55.0654 155.618 53.7217C157.019 52.435 157.332 51.7643 159.11 52.9739C160.65 54.0228 162.108 53.9743 163.744 53.0563C164.743 52.4961 166.347 50.2078 167.396 50.6789C167.896 50.9034 168.262 51.8085 168.767 52.1415C169.4 52.5586 170.374 52.8481 171.112 53.0101C172.856 53.392 173.895 52.2707 174.989 51.0711C176.576 49.3319 176.53 50.3419 178.001 51.5482C179.642 52.8932 181.014 52.2362 182.501 51.088C183.406 53.7406 183.744 56.6372 184 59.418C184.086 60.357 184.409 61.6901 183.565 62.3541C182.971 62.8223 181.71 62.8406 180.993 63.0992C178.435 64.0243 175.977 65.3368 173.837 67.0169C173.003 67.6713 172.277 68.4728 171.137 68.3237C170.052 68.1816 168.997 67.2729 168.124 66.6725C167.176 66.0221 166.217 65.283 165.11 64.9201C164.461 64.7076 163.422 64.7846 162.855 64.3951C161.8 63.6706 163.042 61.7708 162.779 60.4954C162.58 59.5272 162.023 57.5085 160.689 58.0759C158.705 58.9203 159.859 62.2167 160.951 63.2456C158.718 62.8492 156.247 62.2701 154.093 61.5347C152.43 60.9663 151.642 59.0886 151.702 57.386ZM189.144 64.1843C193.727 62.8973 198.015 62.0298 202.784 61.7953C204.896 61.6914 206.939 61.7571 209.027 61.7761C210.229 61.787 211.145 60.8178 210.185 59.7029C208.856 58.1593 204.802 58.747 203.006 58.6776C198.193 58.4916 193.779 59.0388 189.22 60.6256C189.702 59.7374 190.86 59.6222 191.654 59.163C192.628 58.5992 193.29 57.6705 193.706 56.6399C194.788 53.9597 193.699 51.434 192.566 48.9852C194.79 49.5836 197.091 50.8937 199.327 51.2264C199.796 51.2962 200.097 51.2514 200.511 51.422C200.766 51.5266 200.846 51.8885 201.162 51.9675C201.314 52.0061 201.68 51.6614 201.853 51.7102C202.534 51.9028 201.995 51.9539 202.426 52.2325C202.767 52.4536 202.74 52.7385 203.366 52.6339C203.644 52.5881 203.946 52.1581 204.092 52.1465C204.279 52.1312 204.236 51.9041 204.521 51.9705C205.04 52.0911 204.995 52.7601 205.168 53.0895C205.352 53.4401 205.09 53.9063 205.65 54.0979C206.069 54.2416 206.174 53.799 206.531 53.8309C206.747 53.8502 207.196 54.1619 207.387 54.3515C208.002 54.9631 208.845 55.6381 209.672 56.0363C209.591 55.9542 210.062 55.7573 209.949 55.7112C209.874 55.6803 210.369 55.7998 210.361 55.7982C210.839 55.9068 211.091 56.6402 211.333 56.9078C211.777 57.3979 212.467 57.9156 213.089 58.132C214.165 58.5062 214.132 58.0587 214.525 59.3376C215.29 58.1347 215.583 60.1491 216.532 60.3709C217.024 60.4858 216.966 60.2753 217.413 60.5326C217.719 60.7089 217.924 61.2488 218.155 61.5095C218.254 61.1336 218.353 60.7574 218.452 60.3822C219.135 61.6768 220.61 63.7297 222.228 63.3585C222.228 63.7118 222.082 64.1342 222.356 64.4356C222.547 64.6465 222.856 64.4071 223.006 64.5296C223.136 64.6365 223.448 65.0622 223.548 65.1322C223.745 65.2704 224.102 65.3713 224.273 65.5088C224.424 65.63 224.499 66.2087 224.666 66.4175C224.98 66.8107 225.523 66.8887 225.78 67.3602C225.839 66.8953 225.897 66.4302 225.955 65.9653C226.465 66.3591 226.509 66.6649 226.634 67.2406C226.812 68.0608 226.576 67.8685 227.141 68.2148C227.697 68.5552 227.987 68.517 228.497 69.1077C228.996 69.6867 229.001 70.0437 229.722 69.4404C229.856 69.8866 229.899 70.4637 230.257 70.8057C230.527 71.0643 231.647 71.0753 231.753 71.6855C229.65 69.9112 231.034 72.6063 231.755 71.6902C231.907 72.6707 232.624 72.9874 233.444 73.686C234.208 74.3365 234.334 74.2893 234.595 75.3827C234.589 75.3588 234.979 75.6005 235.007 75.649C234.262 75.7553 235.417 76.5873 235.612 76.7397C235.754 76.8506 235.94 76.5853 236.176 76.765C236.447 76.9708 236.667 77.4383 236.888 77.7202C237.485 78.4846 237.926 79.1413 238.554 79.7625C239.232 80.4332 239.562 81.2812 240.213 82.0652C240.935 82.9358 241.325 83.9368 241.929 84.8818C242.503 85.7806 243.265 86.5021 243.93 87.3252C244.99 88.6351 245.35 91.5194 247.325 91.5955C247.209 91.7153 247.37 92.6092 247.389 92.7742C247.483 93.586 247.421 94.3673 247.901 95.1027C248.011 94.2637 248.45 94.5871 248.831 95.0277C249.465 95.7608 248.908 95.5762 248.942 96.3193C248.983 97.2197 249.085 96.5231 249.428 97.3094C249.697 97.9253 249.844 98.3251 249.988 99.0084C248.872 99.097 248.361 98.1853 247.949 97.3021C247.777 96.9325 247.717 96.3253 247.412 96.0364C247.087 95.7289 246.641 95.7047 246.307 95.3617C245.667 94.7026 245.389 93.675 244.634 93.0335C243.781 92.309 243.592 91.9667 242.887 91.1004C242.107 90.1422 241.03 89.4691 240.212 88.5424C239.392 87.6138 239.459 88.1208 238.429 87.7847C237.335 87.4268 235.564 83.985 234.185 85.3108C234.24 84.4435 232.941 83.6277 232.285 83.3136C232.001 83.1778 231.67 83.3007 231.387 83.0971C231.078 82.8763 231.056 82.4507 230.746 82.1857C230.746 82.186 230.27 82.3013 230.173 82.2524C229.976 82.1528 229.975 81.8002 229.801 81.6843C229.321 81.3629 228.748 81.0263 228.238 80.7527C226.998 80.0876 225.902 79.2688 224.706 78.4683C223.681 77.7823 222.44 76.5435 221.256 76.1819C220.221 75.8662 219.571 76.0272 218.723 75.3947C218.262 75.0504 218.397 74.9345 217.656 74.7203C216.95 74.5164 216.553 74.6214 216.179 73.8726C215.525 72.5624 215.938 70.0051 215.811 68.5359C215.677 66.9767 215.517 65.3786 215.111 63.8626C214.63 62.0706 213.995 61.1339 212.073 61.5559C208.264 62.393 204.502 63.1895 200.676 63.9243C193.053 65.3889 185.56 67.7785 178.104 69.9002C177.537 70.0622 174.368 70.7874 175.016 69.1492C175.314 68.3935 177.319 68.1119 177.99 67.8745C181.675 66.5703 185.377 65.2415 189.144 64.1843ZM187.863 60.8497C187.306 61.0619 186.75 61.274 186.193 61.4865V59.9383C186.75 60.2421 187.306 60.5456 187.863 60.8497ZM185.549 52.6631C186.033 53.0586 187.017 52.107 187.428 51.9141C188.131 51.585 189.025 51.3025 189.811 51.3699C191.258 51.4954 192.317 52.9208 192.052 54.3658C191.603 56.8109 188.119 57.967 186.198 58.9229C186.137 58.0563 185.856 57.0147 186.464 56.2654C186.992 55.6146 188.015 55.6617 188.501 54.9694C189.726 53.2299 186.407 53.0722 185.664 54.4555C185.372 53.5713 185.079 52.6874 184.786 51.8035C185.493 51.6863 185.182 52.3637 185.549 52.6631ZM188.976 47.8773C188.285 48.3242 187.593 48.7711 186.902 49.218C186.56 47.6711 187.727 47.4675 188.976 47.8773ZM251.958 101.716C251.053 102.148 250.827 101.117 250.176 101.072C250.945 100.599 250.945 100.599 251.958 101.716ZM255.639 124.243C255.752 125.726 255.664 127.225 255.862 128.702C256.012 129.826 256.467 130.871 256.516 132.008C256.622 134.496 255.782 137.03 254.085 138.854C252.479 140.58 250.182 142.065 248.015 142.791C247.039 143.117 246.02 143.842 245.072 144.109C244.022 144.406 243.026 143.761 242.16 144.917C241.583 139.956 242.005 134.772 241.959 129.78C241.914 124.776 241.967 119.771 241.121 114.822C240.367 110.414 238.881 105.456 236.142 101.85C235.03 100.385 233.66 99.186 232.215 98.0631C231.466 97.4807 230.716 96.8578 229.881 96.398C228.596 95.6898 227.502 95.7877 226.104 95.5862C224.104 95.2973 222.245 95.0532 220.238 95.6164C218.369 96.141 216.311 96.738 214.637 97.6491C212.97 98.5568 211.034 98.931 209.303 99.7438C208.125 100.297 205.68 102.145 204.373 101.812C203.109 101.49 201.237 99.3437 200.429 98.3822C199.397 97.1537 198.544 95.7296 197.628 94.4078C197.307 93.9436 196.651 93.2261 196.568 92.6304C196.423 91.5958 196.837 91.9338 197.825 92.0497C200.367 92.3475 202.756 92.819 205.191 93.6189C206.403 94.0166 208.773 95.6267 209.985 94.6618C211.835 93.1889 209.024 90.6572 207.994 89.8068C206.239 88.3575 204.199 87.2814 202.329 85.9934C200.342 84.6251 197.714 83.1682 196.435 81.0611C200.17 82.1635 203.9 83.4262 207.525 84.8473C209.184 85.4974 210.824 86.1844 212.381 87.049C213.257 87.5344 215.025 88.8479 216.078 88.2187C218.369 86.8514 213.108 82.88 212.349 82.0685C211.169 80.8074 210.013 79.5583 208.717 78.4142C207.843 77.6422 206.469 77.0993 206.062 75.9608C207.513 76.4864 208.687 77.5157 210.047 78.2149C210.758 78.5815 211.408 78.7923 212.193 78.9046C213.032 79.0244 213.131 79.1579 213.792 79.4909C214.306 79.7509 214.834 80.0979 215.411 80.2745C215.822 80.4007 216.541 80.4223 216.9 80.6557C217.084 80.9177 217.274 81.1757 217.47 81.429C217.689 81.4934 217.905 81.5675 218.118 81.6521C218.437 81.9364 218.626 82.3285 218.936 82.6217C221.188 84.7506 224.199 86.2743 226.723 88.058C229.111 89.7454 231.645 91.2717 233.939 93.1132C236.578 95.2329 239.317 97.5109 241.562 100.053C242.831 101.489 243.874 103.118 244.939 104.706C245.711 105.856 246.833 106.81 247.5 107.996C248.954 110.582 250.161 113.376 251.727 115.92C253.322 118.512 255.4 121.088 255.639 124.243ZM234.185 139.244C234.62 137.45 237.074 135.355 238.642 134.564C237.852 136.519 235.746 137.852 234.185 139.244ZM238.231 145.504C236.894 148.279 231.013 148.596 231.811 144.489C232.202 142.478 233.861 141.243 235.286 139.926C235.944 139.318 237.557 137.141 238.576 137.492C238.528 139.057 238.436 140.629 238.44 142.194C238.442 143.238 238.705 144.522 238.231 145.504ZM236.532 113.521C237.074 114.739 237.615 115.754 236.608 116.845C236.154 117.337 234.674 118.413 234.004 118.174C231.854 117.408 235.953 114.069 236.532 113.521ZM223.53 102.677C224.047 102.649 224.55 102.726 225.062 102.694C225.571 102.663 225.625 102.572 226.098 102.637C226.147 102.709 226.197 102.782 226.247 102.854C226.311 103.34 226.567 103.393 227.013 103.013C227.633 103.151 228.037 103.243 228.63 103.578C227.029 104.732 225.081 106.074 223.118 106.462C220.016 107.074 220.873 102.823 223.53 102.677ZM175.979 128.633C175.658 129.28 174.733 127.663 174.504 127.362C174.931 127.361 176.305 127.98 175.979 128.633ZM200.901 111.601C203.311 110.195 206.173 108.96 208.762 107.913C209.217 110.106 206.997 112.937 205.63 114.437C204.525 115.651 203.192 116.909 201.693 117.607C200.072 118.362 198.301 118.031 198.38 115.912C198.409 115.138 198.585 113.892 198.9 113.185C199.307 112.272 200.075 112.083 200.901 111.601ZM168.325 71.7144C168.684 71.6935 172.58 71.1898 172.56 71.6746C172.498 73.1319 168.717 71.9877 168.325 71.7144ZM140.773 99.8501C142.831 97.3111 146.153 94.5701 146.202 91.0214C146.273 85.7992 140.478 88.4046 137.564 88.6218C139.105 87.1081 146.847 80.7573 142.268 78.5018C140.951 77.8534 139.081 78.4869 137.76 78.8265C135.416 79.4292 133.237 80.4731 130.935 81.1992C132.58 79.4481 135.423 77.4579 135.33 74.806C135.216 71.5776 132.566 72.3582 130.274 72.8317C129.394 73.014 125.46 74.5789 124.721 73.5164C124.451 73.1272 124.888 72.6328 124.981 72.2862C125.145 71.6733 125.094 71.4591 125.1 70.8329C125.111 69.5695 125.951 67.9469 125.266 66.7718C125.11 67.0388 124.975 67.3167 124.864 67.6052C124.638 66.9216 124.79 66.1961 124.564 65.5124C130.285 66.9754 136.104 67.7762 141.861 69.025C144.775 69.6572 147.517 70.7456 150.471 71.2356C153.451 71.7294 156.378 72.4854 159.363 72.9566C162.086 73.3859 164.695 74.1014 167.392 74.6499C170.021 75.1848 172.717 74.0128 175.283 73.4191C181.03 72.09 186.775 70.7283 192.53 69.4387C199.171 67.9499 206.079 66.6769 212.435 64.1939C212.558 67.5033 212.823 70.8063 213.227 74.0931C210.42 72.766 206.254 71.0354 203.417 73.4101C202.281 74.3601 201.931 76.0006 202.38 77.3955C202.868 78.9142 204.365 79.6194 205.352 80.7626C202.347 79.992 194.594 74.5599 193.214 80.0507C192.239 83.9289 196.994 86.4337 199.318 88.6165C197.01 88.1646 193.918 86.3188 192.562 89.2852C191.391 91.8498 192.802 94.6402 194.248 96.7552C195.031 97.9014 195.912 98.9798 196.744 100.09C197.185 100.678 197.615 101.273 198.077 101.843C198.541 102.415 199.417 103.014 199.742 103.629C200.397 104.87 199.075 104.945 198.048 105.394C196.765 105.953 195.663 106.893 194.49 107.643C191.804 109.358 189.456 110.951 186.281 111.499C183.013 112.063 179.865 112.653 176.64 113.44C173.424 114.224 170.8 114.978 167.513 113.964C166.015 113.502 164.794 113.091 163.205 113.178C161.535 113.269 160.559 113.182 159.186 112.149C153.28 107.7 146.869 104.05 140.773 99.8501ZM130.125 95.3843C132.407 94.2388 134.705 93.088 137.063 92.1038C139.015 91.2887 141.979 90.3394 144.115 90.6967C143.513 92.2439 142.414 93.5133 141.235 94.6525C140.192 95.6602 138.89 97.1809 137.629 97.8841C136.483 98.5223 135.15 97.5113 134.02 97.0876C132.779 96.6224 131.07 96.4056 130.125 95.3843ZM130.698 101.162C131.836 100.69 134.281 102.276 135.315 102.688C137.349 103.499 139.393 104.346 141.185 105.625C138.997 108.154 136.519 110.465 133.574 112.089C131.637 113.158 128.372 114.384 126.545 112.443C124.249 110.005 127.009 105.037 128.634 102.948C128.688 103.306 128.742 103.662 128.796 104.02C129.315 103.19 129.711 101.573 130.698 101.162ZM172.46 122.804C171.041 123.103 170.558 122.833 169.621 121.745C168.988 121.009 168.366 120.245 167.652 119.584C166.923 118.909 165.123 117.281 167.416 118.218C169.507 119.072 171.297 119.499 173.596 119.165C176.226 118.783 178.677 117.671 181.27 117.108C179.848 118.352 178.438 119.608 177.014 120.848C175.509 122.158 174.371 122.401 172.46 122.804ZM172.784 132.806C169.674 135.146 163.413 134.893 165.52 129.744C165.841 128.961 166.288 128.225 166.807 127.559C166.979 127.336 167.287 126.875 167.533 126.726C168.221 126.309 168.03 126.258 168.692 126.954C169.262 127.554 173.721 132.457 172.784 132.806ZM171.862 123.858C172.147 123.765 173.347 123.069 173.621 123.455C173.898 123.844 171.545 125.193 171.862 123.858ZM194.503 159.552C193.804 161.226 188.208 163.648 189.25 160.275C189.712 158.781 190.147 157.65 191.889 157.536C192.895 157.471 195.119 158.079 194.503 159.552ZM204.542 136.878C205.464 135.536 208.506 133.723 209.805 135.723C210.431 136.687 208.912 137.181 207.994 136.933C207.501 136.799 207.097 136.505 206.561 136.482C205.872 136.454 205.198 136.995 204.542 136.878ZM206.985 138.21C206.358 138.844 202.58 142.023 201.968 141.533C203.202 139.769 204.618 137.799 206.985 138.21ZM200.814 170.382C199.502 170.457 200.157 168.48 200.284 167.689C200.601 168.24 202.271 170.3 200.814 170.382ZM204.147 166.839C203.723 166.084 202.579 164.959 202.838 163.988C203.036 163.245 204.821 162.246 205.568 162.672C206.561 163.239 205.122 166.964 204.147 166.839ZM235.279 158.919C234.718 160.853 234.136 160.354 232.377 160.729C230.611 161.105 229.39 162.604 227.836 163.408C228.376 162.266 228.711 160.875 229.615 159.949C229.824 159.735 231.105 159.313 230.375 158.818C229.737 158.385 228.82 159.79 228.546 160.173C227.199 162.058 226.258 164.36 225.48 166.529C225.098 167.594 224.792 168.679 224.611 169.798C224.449 170.795 224.623 171.838 224.459 172.809C224.194 174.373 222.07 174.38 220.793 174.784C219.637 175.148 218.485 175.544 217.285 175.741C216.245 175.911 215.165 175.601 214.156 175.806C213.064 176.028 212.574 176.675 211.333 176.529C210.321 176.41 209.374 175.944 208.348 175.898C207.388 175.855 206.431 176.187 205.477 175.916C204.514 175.644 204.56 175.538 204.78 174.592C204.916 174.847 205.053 175.103 205.191 175.358C205.574 175.057 205.84 174.139 206.075 173.708C206.44 173.041 206.737 172.81 206.602 171.979C206.402 170.751 205.296 169.878 205.045 168.71C204.783 167.492 205.684 166.495 206.216 165.478C206.944 164.086 206.934 163.054 206.324 161.614C206.784 161.735 207.244 161.857 207.704 161.978C207.074 160.61 204.936 161.165 203.863 161.57C203.325 161.774 202.47 162.574 201.891 162.554C201.094 162.526 200.678 161.478 200.336 160.902C199.345 159.233 198.214 157.584 197.042 156.035C196.719 155.608 196.297 155.335 196.408 154.849C196.503 154.437 197.427 153.852 197.727 153.598C198.851 152.648 200.282 152.121 201.338 151.12C202.934 149.608 204.775 148.525 206.406 147.042C208.106 145.498 209.858 144.08 211.629 142.621C213.423 141.143 214.978 139.401 216.759 137.909C217.22 138.745 218.115 141.74 219.137 141.971C220.329 142.241 220.294 140.831 220.235 139.982C220.15 138.772 219.478 137.597 219.404 136.442C219.323 135.207 220.511 134.655 221.408 133.941C222.793 132.837 225.859 130.324 224.211 128.255C222.791 126.474 218.175 129.89 216.903 130.917C215.822 131.79 214.986 132.58 213.769 133.268C212.913 133.752 211.477 135.614 210.462 135.442C209.255 135.237 208.784 133.919 207.307 133.963C205.864 134.005 204.639 135.044 203.744 136.088C201.721 138.446 201.026 141.602 199.183 144.06C198.274 145.272 197.095 146.273 196.11 147.42C195.027 148.679 194.797 150.129 193.73 151.361C190.675 147.291 187.347 143.438 184.126 139.502C182.517 137.537 180.941 135.548 179.367 133.555C178.777 132.808 178.112 132.107 177.572 131.322C176.831 130.248 176.965 129.385 176.674 128.187C176.546 127.655 175.942 127.019 176.104 126.512C176.321 125.83 177.846 125.294 178.396 125.015C180.642 123.875 182.678 122.45 184.772 121.058C188.65 118.479 192.572 116.061 196.697 113.858C196.626 114.807 196.008 115.791 196.423 116.743C196.616 116.195 196.922 113.755 197.653 113.651C197.513 113.671 197.628 116.779 197.741 117.223C198.078 118.548 199.058 119.454 200.459 119.445C203.127 119.427 205.519 116.525 207 114.602C208.003 113.3 208.966 111.786 209.319 110.156C209.637 108.693 209.288 107.676 210.808 106.933C213.929 105.409 217.074 104.167 220.412 103.359C220.262 104.797 219.845 106.568 221.152 107.602C222.595 108.744 224.483 107.726 225.842 106.971C227.187 106.223 229.262 104.168 230.843 104.765C232.397 105.352 233.479 107.302 234.35 108.596C235.116 109.737 235.951 110.56 235.063 111.832C234.067 113.258 233.42 114.649 232.622 116.197C232.316 116.792 232.023 117.18 232.24 117.79C232.31 117.988 233.109 119.166 233.326 119.335C234.711 120.413 236.58 118.363 237.569 117.585C237.918 120.936 237.996 124.271 238.136 127.632C238.239 130.093 239.192 132.517 237.172 134.316C235.153 136.115 233.467 137.962 232.236 140.397C231.579 141.699 230.989 143.034 230.278 144.308C229.803 145.16 228.801 146.408 229.414 147.41C230.061 146.796 230.254 145.862 230.793 145.17C231.116 146.607 231.441 148.201 232.961 148.81C234.71 149.511 236.449 148.298 237.998 147.624C237.442 151.466 236.359 155.199 235.279 158.919ZM233.491 163.335C232.291 165.901 231.207 168.994 228.99 170.884C228.503 171.298 226.435 172.918 225.648 172.647C224.98 172.416 225.348 171.066 225.464 170.488C226.055 167.552 227.077 165.705 229.457 163.832C230.443 163.056 231.708 162.065 232.978 161.874C234.346 161.668 233.952 162.35 233.491 163.335ZM267.35 224.232C264.238 220 259.839 216.711 255.682 213.532C253.799 212.092 251.724 211.012 249.822 209.571C247.671 207.942 245.487 206.371 243.077 205.144C238.51 202.816 233.527 201.194 229.217 198.442C227.115 197.1 224.815 195.802 222.839 194.296C221.97 193.634 221.204 192.787 220.419 192.029C219.69 191.324 218.126 190.302 217.836 189.271C219.049 189.072 219.738 187.895 220.821 187.775C221.178 187.735 223.412 188.327 223.107 187.243C223.917 187.222 224.011 187.211 224.691 187.033C224.972 186.96 225.305 187.074 225.59 186.974C226.025 186.82 226.321 186.376 226.761 186.206C227.073 186.086 228.233 186.22 228.409 186.07C228.889 185.66 228.379 185.696 228.093 185.183C229.026 185.16 229.667 185.631 230.603 185.13C230.887 184.977 231.129 184.625 231.405 184.443C231.894 184.119 232.071 184.621 232.407 183.949C232.72 184.876 232.712 184.62 233.468 184.347C234.221 184.075 234.766 183.88 235.624 183.812C237.674 183.649 239.731 183.898 241.771 183.753C242.518 183.699 243.155 183.53 243.897 183.628C244.55 183.713 244.353 184.167 244.896 183.556C245.022 183.413 244.615 183.024 244.81 182.82C244.896 182.73 245.177 182.793 245.284 182.747C246.238 182.33 246.242 182.912 246.411 183.67C246.971 183.539 247.541 183.42 248.028 183.092C247.782 182.873 247.371 182.631 247.608 182.231C248.415 182.537 248.943 182.396 248.539 183.281C249.351 183.55 249.503 183.2 250.232 183.123C250.663 183.078 251.265 183.346 251.624 183.001C252.017 182.625 251.398 182.217 252.119 181.893C252.267 181.969 252.376 182.082 252.448 182.234C252.837 182.352 252.767 182.505 252.238 182.693C253.655 183.428 253.322 182.607 253.917 181.738C254.055 181.538 254.67 180.916 254.951 181.216C255.376 181.672 254.508 181.817 254.694 182.27C255.017 183.055 256.142 182.048 256.488 181.651C256.75 181.35 256.856 180.774 257.138 180.549C257.53 180.237 258.093 180.719 258.583 180.633C260.823 180.24 262.937 177.229 261.25 175.214C260.797 174.672 260.413 174.78 259.873 174.438C259.339 174.1 259.039 173.516 258.611 173.033C257.632 171.931 256.434 171.106 255.066 170.578C251.893 169.354 248.474 168.461 245.141 167.804C243.598 167.5 241.955 167.034 240.375 167.038C239.444 167.039 238.042 167.763 237.172 167.416C235.48 166.742 237.964 163.291 238.374 162.176C239.578 158.901 240.486 155.41 241.082 151.971C241.199 151.298 241.154 150.427 241.396 149.786C241.674 149.049 241.734 149.153 242.33 149.093C243.405 148.984 244.582 149.548 245.702 149.353C246.944 149.137 248.285 149.238 249.539 148.854C250.115 148.677 250.649 148.486 251.028 147.999C251.148 147.847 251.015 147.714 251.09 147.607C251.113 147.574 251.542 147.111 251.556 147.085C251.552 146.846 251.572 146.608 251.618 146.374C252.053 146.734 251.839 147.491 252.571 147.508C252.701 146.702 252.703 146.539 253.232 146.085C253.192 146.12 253.631 145.747 253.574 145.787C253.601 145.644 253.654 145.509 253.732 145.385C253.98 145.266 254.241 145.202 254.516 145.195C255.088 144.607 254.851 144.293 254.851 143.501C255.312 143.741 255.774 143.981 256.236 144.22C256.347 141.874 257.776 140.59 258.725 138.688C259.129 137.878 259.541 137.245 259.638 136.268C259.694 135.704 259.548 135.207 259.782 134.676C259.993 134.193 260.467 133.934 260.665 133.409C261.055 132.375 260.764 131.056 260.785 129.983C260.815 128.495 260.964 127.011 261.012 125.524C261.108 122.604 260.814 119.603 260.377 116.716C260.168 115.336 259.819 113.996 259.544 112.63C259.318 111.507 258.778 110.454 258.585 109.41C258.505 108.976 258.629 108.586 258.498 108.106C258.325 107.475 258.037 106.855 257.823 106.235C257.322 104.787 256.827 103.342 256.264 101.917C255.173 99.1552 253.895 96.4763 252.682 93.7676C251.514 91.1628 250.547 88.4774 249.035 86.0449C247.546 83.6493 245.942 81.2939 244.301 79.0009C242.591 76.6126 240.429 74.5606 238.771 72.1504C235.658 67.6251 231.315 63.8961 226.772 60.8168C217.397 54.4624 207.266 48.118 196.025 45.9392C194.33 45.6111 192.615 45.3834 190.888 45.3409C189.817 45.3143 188.041 45.8323 187.027 45.4697C185.891 45.0636 185.995 43.7876 185.711 42.7865C185.345 41.4999 184.52 40.6569 183.583 39.7471C182.597 38.7899 181.702 37.6713 180.472 37.0202C179.226 36.3607 177.755 36.114 176.375 35.9148C175.142 35.7365 173.3 35.9029 172.173 35.3656C171.147 34.8762 171.654 34.3666 172.615 34.7856C172.685 34.3619 172.742 34.0883 173.013 33.7609C173.15 33.5963 173.794 33.3655 173.809 33.2121C173.828 33.0322 173.287 32.5201 173.21 32.2882C173.044 31.789 173.138 31.0975 173.336 30.6289C174.304 31.4898 174.585 31.8711 175.666 31.0481C176.123 30.7007 176.263 30.5475 176.792 30.3722C176.935 30.3245 177.257 30.4716 177.382 30.3891C177.86 30.0744 177.42 30.1486 177.647 29.7766C177.59 29.8705 177.992 28.8819 177.972 29.0886C178.021 28.562 178.177 28.7239 177.859 28.0769C177.236 26.8113 175.651 26.7595 176.459 25.3151C176.777 24.7468 177.057 24.8034 177.146 23.9794C177.194 23.5364 177.135 23.0284 177.133 22.5778C177.129 21.6562 177.302 21.0109 176.439 20.5416C175.609 20.0903 174.843 20.5855 174.506 19.4661C174.153 18.2916 174.509 16.7857 173.236 15.9814C172.306 15.3938 170.964 15.8962 169.937 15.6088C168.907 15.321 167.96 14.2676 166.915 15.0764C166.173 15.6512 165.779 17.0645 164.38 16.3003C163.748 15.9556 163.401 14.7983 163.003 14.1492C162.369 13.1147 161.86 12.7411 160.884 13.7486C160.282 14.37 159.013 15.8827 158.936 16.743C158.851 17.6926 159.679 18.0894 158.639 18.6511C157.604 19.2101 157.024 18.8002 156.184 19.9347C155.351 21.0602 155.995 21.682 155.031 22.759C153.824 24.105 153.182 24.6861 153.199 26.4996C153.211 27.7436 152.112 28.8181 152.753 29.9982C153.471 31.3207 155.569 31.8708 156.84 32.409C156.416 33.1933 155.833 33.6962 156.329 34.5034C156.777 35.2345 158.046 35.3866 158.833 35.2538C159.362 35.1648 159.381 35.2448 159.797 34.8726C160.07 34.6292 159.696 34.3251 160.257 34.1903C160.855 34.0458 161.81 35.2179 162.198 35.5107C161.331 36.6367 158.948 36.8472 157.687 37.4179C156.919 37.7659 156.213 38.2809 155.431 38.592C154.721 38.8742 153.858 38.8088 153.214 39.2454C152.103 39.9998 151.641 41.8685 150.96 42.9672C150.189 44.211 149.441 44.7884 147.962 45.0467C146.117 45.3684 144.631 45.4979 142.91 46.3014C140.809 47.2829 138.737 48.3192 136.673 49.377C133.344 51.0833 130.252 52.8348 127.161 54.8984C123.927 57.0579 120.781 59.3117 117.661 61.5679C114.574 63.7995 111.983 66.5447 109.302 69.2435C107.134 71.4249 105.233 73.7793 103.074 75.9601C100.525 78.5354 98.6504 81.7853 96.2873 84.5172C94.9944 86.0114 93.7572 87.4809 92.9461 89.2414C92.2887 90.6688 91.1452 92.069 90.3818 93.5661C89.4066 95.4802 88.4836 97.3642 87.3885 99.2149C86.9393 99.9743 86.4054 100.626 85.9313 101.351C85.3236 102.28 85.3595 103.176 85.1961 104.247C85.0255 103.986 84.8552 103.724 84.6845 103.464C84.375 104.139 84.0012 104.804 83.7332 105.496C83.5622 105.937 83.5891 106.563 83.4175 106.95C83.202 107.434 82.9397 107.37 82.671 107.774C82.3838 108.205 82.2912 108.785 81.9887 109.248C80.6802 111.25 80.1768 113.789 79.5045 116.073C78.6027 119.136 78.7448 122.658 78.7939 125.817C78.8461 129.153 79.0283 132.49 79.53 135.791C79.9846 138.781 80.9561 141.649 82.4771 144.271C83.8026 146.555 85.6301 147.886 87.9713 149.056C89.0464 149.594 90.0441 149.428 91.1724 149.513C92.4085 149.607 93.2516 149.943 94.5594 149.648C95.1866 149.506 95.4838 149.049 95.9822 148.897C96.2906 148.803 96.457 148.957 96.7532 148.921C97.1768 148.869 98.058 148.662 98.5176 148.711C99.9476 148.868 99.7076 151.029 99.8484 152.133C100.065 153.833 100.223 155.552 100.515 157.241C101.129 160.794 102.455 164.114 103.238 167.606C99.6073 168.049 96.4925 168.726 93.0892 170.101C89.6749 171.479 86.2228 171.947 82.6295 172.632C79.2681 173.273 76.0347 174.471 73.344 176.642C72.0829 177.659 70.7727 178.849 71.6987 180.523C72.2911 181.594 73.3586 181.866 74.28 182.489C74.4662 182.253 73.9277 181.754 73.8291 181.616C74.6037 181.775 74.5801 182.136 75.1459 182.451C75.6403 182.726 76.045 182.716 76.5862 182.911C77.9077 183.385 78.5572 184.57 79.8634 184.903C80.2744 185.007 80.812 185.258 81.232 185.329C81.737 185.414 82.1149 185.193 82.6266 185.286C82.9025 185.468 83.2013 185.599 83.522 185.676C83.7326 185.579 83.9404 185.476 84.1453 185.367C84.8804 185.443 85.3343 185.905 85.9316 186.285C85.9714 185.807 85.914 185.31 86.3669 184.997C86.5439 185.463 86.258 185.758 86.7408 186.078C87.3524 186.484 88.1555 185.977 88.7031 185.72C88.8581 187.267 92.4397 187.176 93.575 187.154C95.1471 187.124 96.7176 186.5 98.3037 186.848C99.1129 187.025 99.9765 187.211 100.782 187.441C101.752 187.718 102.924 187.966 103.879 188.315C104.259 188.454 104.724 188.9 105.128 188.87C105.449 188.846 105.536 188.371 105.91 188.385C106.334 188.4 106.476 188.872 106.843 189.014C107.392 189.227 107.897 188.823 108.418 189.027C108.606 189.1 108.86 189.414 109.1 189.517C109.464 189.672 110.185 189.674 110.591 189.749C111.166 189.855 111.68 189.784 112.173 189.819C112.57 189.848 112.561 190.115 112.751 190.132C112.969 190.152 113.349 189.402 113.642 189.292C114.068 189.132 114.842 189.514 115.277 189.581C112.126 193.851 108.327 197.626 104.21 200.931C99.768 204.496 95.2195 208.057 90.4565 211.184C86.1318 214.023 81.9456 216.479 78.5927 220.487C75.7655 223.867 71.2651 227.483 71.9587 232.382C72.652 237.277 77.9668 239.268 82.2255 240.203C87.5818 241.378 93.0955 240.905 98.4661 241.566C100.756 241.848 103.301 241.697 105.607 241.457C108.33 241.174 110.664 239.397 113.005 238.112C117.216 235.8 120.815 232.707 124.963 230.324C130.156 227.339 135.295 224.177 140.988 222.178C143.637 221.248 146.364 220.187 148.5 218.274C148.818 217.989 149.055 217.56 149.414 217.325C150.025 216.926 150.189 217.33 150.543 217.21C150.816 217.117 151.08 216.822 151.316 216.734C151.913 216.51 152.18 216.602 152.849 216.602C152.275 216.272 151.749 215.418 152.345 214.723C153.365 213.532 153.541 215.435 153.924 215.876C154.249 215.458 154.125 215.087 154.042 214.612C154.316 214.794 154.591 214.975 154.866 215.156C154.676 214.238 154.856 213.392 155.343 212.592C155.791 211.855 155.902 211.958 156.026 210.936C157.419 212.208 157.692 209.121 157.817 207.996C157.938 206.904 157.818 206.121 158.536 205.166C159.307 204.141 160.479 203.494 161.457 202.698C163.002 201.44 164.702 199.851 166.839 201.057C168.526 202.01 169.444 204.345 171.027 205.545C171.987 206.273 173 206.346 173.612 207.475C174.107 208.387 174.268 209.48 174.735 210.416C175.866 212.687 177.495 215.286 179.354 217.027C181.083 218.649 183.304 218.641 185.328 219.646C187.332 220.642 189.414 221.721 191.536 222.442C193.852 223.23 196.351 223.565 198.606 224.52C199.766 225.011 200.804 225.751 201.974 226.221C203.237 226.728 204.566 227.085 205.845 227.55C210.913 229.391 215.873 231.648 221.197 232.668C223.559 233.121 225.745 234.35 228.123 234.609C229.144 234.72 229.976 234.86 230.974 235.116C232.541 235.516 232.209 235.729 232.786 237.035C233.735 239.185 236.054 237.912 237.841 237.965C240.701 238.052 243.518 237.589 246.374 237.567C251.368 237.529 256.177 236.966 261.008 235.326C265.859 233.68 271.381 229.713 267.35 224.232Z" fill="#666875"/>
<path fill-rule="evenodd" clip-rule="evenodd" d="M209.618 56.2454C209.687 56.3138 209.847 56.3553 209.618 56.2454V56.2454Z" fill="#666875"/>
<path fill-rule="evenodd" clip-rule="evenodd" d="M121.644 147.819C122.729 146.72 127.344 146.942 127.693 148.908C128.082 151.103 123.958 154.418 122.448 155.348C120.506 156.544 118.136 156.768 118.48 153.765C118.74 151.497 120.099 149.384 121.644 147.819ZM125.455 145.556C125.596 146.164 124.559 145.957 124.273 145.813C124.138 145.537 125.314 144.946 125.455 145.556ZM117.496 149.581C118.417 149.664 119.472 148.187 120.166 147.684C120.473 148.158 118.449 150.766 118.226 151.361C117.67 152.848 117.361 154.727 118.119 156.21C120.335 160.544 126.006 154.355 127.425 152.193C128.417 150.681 129.104 148.806 127.702 147.325C127.203 146.797 126.379 146.651 125.915 146.149C125.305 145.489 125.785 144.638 124.558 144.782C123.711 144.881 122.695 145.645 121.872 145.921C120.88 146.254 119.988 146.599 119.122 147.216C118.927 147.355 116.359 149.479 117.496 149.581Z" fill="#666875"/>
<path fill-rule="evenodd" clip-rule="evenodd" d="M182.557 151.036C181.979 154.013 179.028 157.068 175.923 157.187C172.832 157.304 171.83 154.065 172.376 151.483C172.842 149.281 174.745 145.456 177.46 145.877C179.595 146.208 183.053 148.483 182.557 151.036ZM180.588 146.059C178.628 144.542 175.92 143.84 173.648 145.044C172.903 145.438 169.929 147.179 170.834 148.357C172.054 147.412 173.107 146.099 174.693 145.785C174.426 147.014 172.903 148.12 172.367 149.317C171.739 150.715 171.397 152.315 171.499 153.852C171.682 156.587 173.514 158.712 176.35 158.336C178.946 157.991 181.216 156.002 182.454 153.764C184.108 150.777 183.177 148.061 180.588 146.059Z" fill="#666875"/>
<path fill-rule="evenodd" clip-rule="evenodd" d="M162.384 157.804C160.988 159.871 158.86 161.815 156.399 162.454C153.213 163.28 154.108 160.647 155.06 158.758C155.902 157.087 157.346 154.214 159.545 154.229C160.291 154.234 161.681 154.595 162.335 154.994C163.625 155.781 163.119 156.717 162.384 157.804ZM159.41 153.262C159.911 152.704 162.129 150.313 162.427 152.177C163.063 151.438 162.561 150.826 161.746 150.748C160.762 150.654 159.687 151.749 158.977 152.293C157.516 153.413 156.391 154.56 155.423 156.129C154.356 157.86 151.634 161.771 154.016 163.488C156.59 165.344 160.338 161.916 161.95 160.149C162.981 159.018 164.347 157.357 163.955 155.699C163.473 153.662 161.104 153.449 159.41 153.262Z" fill="#666875"/>
<path fill-rule="evenodd" clip-rule="evenodd" d="M148.425 119.956C146.984 121.6 144.058 123.995 141.646 123.713C139.447 123.455 140.305 120.987 141.084 119.792C142.253 117.996 143.82 116.311 146.083 116.212C147.06 116.17 148.327 116.19 149.083 116.93C150.117 117.94 149.186 119.088 148.425 119.956ZM148.272 115.389C146.584 114.806 145.921 114.584 144.281 115.511C142.964 116.255 141.796 117.307 140.892 118.502C139.539 120.29 138.175 124.313 141.648 124.816C145.458 125.368 154.521 117.55 148.272 115.389Z" fill="#666875"/>
<path fill-rule="evenodd" clip-rule="evenodd" d="M153.465 125.652C152.369 126.772 151 127.685 149.438 127.997C150.099 126.523 151.574 123.302 153.324 122.853C154.129 122.646 155.048 122.917 154.982 123.835C154.934 124.499 153.897 125.21 153.465 125.652ZM154.875 121.755C153.968 121.3 154.254 120.99 153.198 121.346C152.366 121.627 151.317 122.115 150.624 122.677C150.246 122.984 149.069 124.071 149.213 124.624C149.474 125.629 150.352 124.089 150.583 123.793C150.978 124.115 148.956 127.009 148.835 127.485C148.387 129.258 149.779 129.446 151.143 128.866C152.983 128.084 158.432 123.537 154.875 121.755Z" fill="#666875"/>
<path fill-rule="evenodd" clip-rule="evenodd" d="M181.851 169.478C181.987 168.302 182.18 167.059 183.259 166.399C184.231 165.804 185.238 165.89 185.382 167.111C185.516 168.244 184.405 170.257 183.507 170.876C182.256 171.737 182.015 170.663 181.851 169.478ZM183.458 172.154C186.026 170.651 187.645 163.759 182.911 165.69C180.221 166.788 181.21 173.469 183.458 172.154Z" fill="#666875"/>
<path fill-rule="evenodd" clip-rule="evenodd" d="M161.524 143.574C161.929 142.744 162.392 142.469 163.214 142.105C162.666 142.622 162.107 143.1 161.524 143.574ZM162.117 141.528C161.535 142.112 160.202 143.002 160.389 144.004C160.559 144.919 161.258 144.867 161.892 144.582C163.221 143.984 163.961 141.368 165.351 141.123C163.809 140.145 163.449 140.191 162.117 141.528Z" fill="#666875"/>
<path fill-rule="evenodd" clip-rule="evenodd" d="M162.321 89.5717C162.395 92.3578 162.46 95.1436 162.522 97.9296C162.543 98.9088 162.31 100.305 162.603 101.243C162.733 101.656 163.907 103.447 164.323 103.563C165.78 103.968 165.259 100.316 165.269 99.4168C165.305 96.383 165.26 93.3459 165.248 90.3122C165.241 88.7486 165.683 75.6394 163.654 75.7035C163.305 75.7144 162.444 77.2132 162.314 77.5137C161.906 78.4573 162.057 79.8562 162.066 80.8622C162.093 83.7642 162.244 86.6701 162.321 89.5717Z" fill="#666875"/>
<path fill-rule="evenodd" clip-rule="evenodd" d="M174.604 97.6932C174.718 98.4635 174.658 99.7478 175.525 100.147C176.28 100.495 176.569 100.082 176.851 99.4361C177.5 97.9512 177.266 95.6811 177.254 94.1458C177.23 91.1031 176.887 88.0733 176.65 85.0422C176.546 83.7121 176.762 82.3763 176.596 80.9844C176.523 80.3738 176.451 77.9168 175.318 78.0313C174.295 78.1346 174.387 80.7095 174.331 81.3729C173.867 86.8959 173.786 92.1802 174.604 97.6932Z" fill="#666875"/>
<path fill-rule="evenodd" clip-rule="evenodd" d="M222.921 161.115C222.487 163.332 215.408 171.057 213.626 166.737C212.569 164.174 214.861 161.383 216.648 159.9C217.755 158.982 219.137 158.08 220.644 158.359C221.924 158.595 223.196 159.706 222.921 161.115ZM219.266 157.136C218.766 157.254 214.587 160.188 214.548 160.15C214.186 159.786 216.821 155.857 217.093 155.513C219.327 152.682 220.81 154.826 222.208 157.051C221.91 155.722 221.092 153.792 219.723 153.23C217.996 152.521 216.648 154.272 215.817 155.531C214.642 157.311 213.995 159.244 213.342 161.253C213.031 162.211 212.676 163.079 212.149 163.943C211.629 164.795 210.719 165.735 210.853 166.813C211.593 166.402 211.986 165.597 212.451 164.934C212.971 165.145 212.793 166.802 212.898 167.224C213.164 168.284 213.888 169.114 215.008 169.296C217.097 169.636 219.351 167.704 220.747 166.392C222.218 165.01 223.802 163.114 223.789 160.986C223.775 158.763 221.589 156.586 219.266 157.136Z" fill="#666875"/>
<path fill-rule="evenodd" clip-rule="evenodd" d="M224.927 121.495C223.742 123.308 221.663 125.481 219.464 125.903C217.849 126.212 216.784 125.015 217.433 123.4C217.98 122.034 219.847 121.172 221.071 120.571C222.041 120.095 226.566 118.985 224.927 121.495ZM224.055 118.529C221.629 118.437 219.671 120.192 217.861 121.592C218.27 119.983 219.194 118.233 220.496 117.186C222.268 115.761 223.947 116.646 225.812 117.359C225.352 115.907 223.287 115.385 221.971 115.59C220.307 115.849 219.111 117.269 218.27 118.643C217.267 120.282 216.923 122.214 215.742 123.751C215.201 124.455 211.853 127.088 212.611 128.164C213.862 126.836 215.113 125.509 216.363 124.181C216.688 125.75 217.045 127.537 219.049 127.384C220.649 127.262 222.474 125.902 223.644 124.863C225.154 123.52 228.128 118.683 224.055 118.529Z" fill="#666875"/>
<path fill-rule="evenodd" clip-rule="evenodd" d="M190.059 134.011C189.031 134.484 186.768 135.126 186.193 133.706C185.395 131.734 187.964 128.274 189.187 126.959C189.939 126.151 190.45 125.733 191.499 126.256C192.336 126.674 193.566 127.861 193.888 128.774C194.577 130.734 191.667 133.272 190.059 134.011ZM192.418 124.538C193.255 124.727 193.358 125.79 192.311 125.381C191.526 125.075 191.344 124.296 192.418 124.538ZM193.469 126.035C193.156 125.081 193.792 123.586 192.253 123.517C191.38 123.478 189.782 124.365 189.021 124.726C187.965 125.225 186.971 125.988 186.42 127.062C185.909 128.057 186.274 128.319 187.052 127.493C187.148 127.558 185.292 132.344 185.276 132.823C185.203 135.015 186.754 136.458 188.933 136.07C190.936 135.712 192.74 134.075 193.842 132.422C194.4 131.586 194.858 130.628 194.899 129.603C194.964 128.032 193.916 127.4 193.469 126.035Z" fill="#666875"/>
<path fill-rule="evenodd" clip-rule="evenodd" d="M205.939 121.667C204.187 120.866 202.229 123.604 203.074 125.231C204.182 127.365 209.589 123.335 205.939 121.667ZM203.849 124.728C203.485 124.079 205.961 123.123 206.352 123.107C206.157 123.465 204.349 125.617 203.849 124.728Z" fill="#666875"/>
<path fill-rule="evenodd" clip-rule="evenodd" d="M86.642 120.1C86.5441 119.407 84.9908 120.413 84.9998 120.859C85.2568 120.345 86.8459 121.543 86.642 120.1Z" fill="#666875"/>
<path fill-rule="evenodd" clip-rule="evenodd" d="M171.596 67.7327C173.573 67.5873 171.053 57.6104 169.612 58.4926C168.05 59.4489 169.781 67.8659 171.596 67.7327Z" fill="#666875"/>
<path fill-rule="evenodd" clip-rule="evenodd" d="M175.289 63.074C177.141 63.3393 176.847 59.085 175.851 58.3236C174.011 56.9181 173.039 62.7519 175.289 63.074Z" fill="#666875"/>
</svg>
