<svg width="340" height="255" viewBox="0 0 340 255" fill="none" xmlns="http://www.w3.org/2000/svg">
<path fill-rule="evenodd" clip-rule="evenodd" d="M257.997 171.417C258.955 172.877 259.912 174.336 260.918 175.761C261.066 175.97 261.217 176.181 261.369 176.394C262.793 178.381 264.319 180.51 264.296 183.038C264.285 184.282 264.105 185.655 262.906 186.323C262.879 185.839 262.186 186.318 261.952 186.479C261.939 186.488 261.927 186.497 261.916 186.504C261.501 186.787 261.418 186.906 261.314 186.929C261.218 186.951 261.103 186.889 260.688 186.798C260.165 186.682 259.671 186.668 259.189 186.655C258.38 186.632 257.608 186.61 256.796 186.111C256.01 185.628 255.227 185.141 254.444 184.654C252.491 183.44 250.539 182.226 248.542 181.075C242.495 177.593 236.509 174.028 230.9 169.866C227.791 167.559 224.597 165.328 221.396 163.093C214.504 158.28 207.585 153.448 201.431 147.796C192.426 139.528 182.977 131.323 172.292 125.275C172.132 125.185 171.905 125.084 171.651 124.971C170.769 124.58 169.565 124.045 169.712 123.295C169.836 122.663 170.893 121.843 171.691 121.223C171.964 121.011 172.207 120.822 172.372 120.673C173.168 119.951 173.975 119.244 174.783 118.536C176.255 117.247 177.727 115.957 179.127 114.586C183.129 110.665 187.101 106.339 190.311 101.739C191.716 99.7253 192.502 97.509 193.31 95.2316C193.4 94.9776 193.49 94.7232 193.581 94.4679C194.386 92.222 195.129 89.4572 193.824 87.2356C193.219 86.2063 192.384 85.7889 191.217 85.8669C191.062 85.8772 190.934 85.8908 190.825 85.9025C190.254 85.9636 190.233 85.9656 189.911 85.1043C189.86 84.9685 189.811 84.83 189.761 84.6906C189.404 83.6955 189.027 82.6423 188.057 82.0821C187.008 81.4762 186.265 82.0167 185.435 82.6207C185.358 82.6765 185.281 82.7326 185.203 82.7884C185.028 82.5367 184.847 82.2548 184.658 81.9586C183.685 80.4429 182.474 78.5556 180.673 78.4321C178.44 78.279 177.166 81.0213 176.388 82.694L176.374 82.7239C174.08 87.6612 171.094 92.2732 167.883 96.6699C164.403 101.436 160.845 106.284 157.01 110.772C156.835 110.976 156.655 111.202 156.468 111.435C155.79 112.282 155.03 113.233 154.133 113.685C152.96 114.276 151.986 113.72 150.994 113.04C150.45 112.667 149.909 112.292 149.37 111.916C147.59 110.68 145.817 109.448 143.95 108.322C141.886 107.077 139.778 105.912 137.669 104.747C137.024 104.391 136.378 104.034 135.734 103.675C135.253 103.407 134.781 103.117 134.31 102.827C133.592 102.386 132.875 101.945 132.121 101.578C131.456 101.255 130.757 101.025 130.057 100.795C129.532 100.623 129.007 100.45 128.496 100.238C132.595 99.0157 136.899 100.437 140.832 101.736C141.098 101.825 141.364 101.912 141.627 101.998C143.777 102.702 146.026 103.435 148.321 103.245C150.307 103.082 152.109 102.019 153.679 100.858C156.518 98.7587 156.741 95.6061 155.815 92.4196C155.189 90.2627 154.367 88.1546 153.547 86.0479C152.971 84.5724 152.397 83.0975 151.89 81.6073C151.33 79.9618 150.944 78.2143 152.219 76.7925C153.359 75.5202 154.835 75.3638 156.392 75.8645C156.546 75.9143 156.7 75.9638 156.854 76.0133C160.442 77.1704 163.68 78.2146 167.561 78.1041C170.724 78.0141 174.747 77.1163 176.879 74.5457C178.047 73.1365 178.091 71.1991 178.096 69.4513C178.102 67.3798 177.971 65.2966 177.681 63.246C177.57 62.4587 177.42 61.6708 177.271 60.8843C176.726 58.0152 176.184 55.1587 177.505 52.3706C177.899 51.5376 178.998 49.5968 180.085 49.4806C181.259 49.3551 181.535 50.7616 181.708 51.6442C181.729 51.7511 181.749 51.8503 181.768 51.938C181.948 51.8248 182.12 51.7899 182.273 51.759C182.552 51.7026 182.767 51.6594 182.841 51.1767C183.963 52.3524 184.929 53.6496 185.896 54.9482C186.311 55.506 186.726 56.0638 187.154 56.6127C187.764 57.3936 188.525 58.1032 189.288 58.8134C190.235 59.6959 191.183 60.5788 191.838 61.5994C192.505 62.6384 191.998 64.0349 191.522 65.3444C191.282 66.0058 191.05 66.6447 190.982 67.2041C190.751 69.0831 191.241 71.2333 192.525 72.666C193.125 73.3358 193.859 73.8013 194.746 73.9812C195.218 74.0768 195.678 73.9733 196.123 73.873C196.509 73.786 196.884 73.7017 197.245 73.7528C197.792 73.8302 197.895 74.1486 198.051 74.63C198.079 74.716 198.108 74.8073 198.142 74.9033C198.45 75.7719 198.844 76.592 199.571 77.2023C199.876 77.4573 200.188 77.6442 200.493 77.8268C201.003 78.1316 201.491 78.4231 201.879 78.9959C202.012 79.1938 202.132 79.39 202.249 79.5816C202.605 80.1646 202.935 80.7062 203.567 81.1235C203.856 81.3141 204.189 81.4705 204.523 81.6272C205.486 82.0788 206.454 82.5324 206.364 83.8157L206.941 83.3565C207.388 84.7918 208.003 86.1817 208.659 87.5314C208.967 88.1639 209.125 88.5 209.109 89.2035C209.105 89.3553 209.076 89.4947 209.047 89.6299C208.988 89.9071 208.934 90.1648 209.119 90.4666C209.358 90.8567 209.814 91.0061 210.267 91.1545C210.647 91.2791 211.025 91.4029 211.271 91.6679C211.535 91.9547 211.54 92.2904 211.545 92.6198C211.55 92.9744 211.556 93.321 211.885 93.59C211.617 93.6723 210.875 94.272 211.154 94.6362C211.397 94.9523 211.504 94.8158 211.613 94.6774C211.684 94.5864 211.756 94.4944 211.867 94.5286C212.216 94.6356 212.337 94.9191 212.453 95.192C212.552 95.4255 212.649 95.6512 212.881 95.7522C212.986 95.798 212.976 95.3016 212.971 95.1851C214.486 98.1714 216.136 101.085 217.787 103.999C219.934 107.79 222.081 111.581 223.928 115.528C229.739 127.951 236.648 140.047 244.288 151.441C244.888 152.336 245.507 153.228 246.127 154.122C247.372 155.916 248.623 157.719 249.735 159.564C250.791 161.316 252.01 162.942 253.232 164.571C253.947 165.525 254.664 166.48 255.348 167.462C256.256 168.764 257.126 170.091 257.997 171.417ZM212.97 95.1821C212.969 95.1505 212.97 95.1562 212.971 95.1851C212.971 95.1841 212.97 95.1831 212.97 95.1821ZM89.3085 85.2075C89.2905 85.436 89.2723 85.6697 89.35 85.9347C89.429 86.2056 89.6548 86.4092 89.8786 86.6107C90.0386 86.7551 90.1976 86.8982 90.3009 87.0646C91.132 85.841 91.1031 83.2207 90.5961 81.9125C90.3567 81.2945 89.9038 80.49 89.5452 79.9475C89.4891 79.8628 89.3971 79.7705 89.3081 79.6812C89.2098 79.5826 89.1156 79.488 89.0767 79.4109C89.0149 79.2881 88.9867 79.1211 88.9582 78.9517C88.9276 78.7721 88.8971 78.5901 88.825 78.457C88.4219 77.7079 87.5397 77.523 86.7644 77.6117C86.6811 77.6213 86.5968 77.6306 86.5111 77.6399C85.8005 77.7176 85.0239 77.8026 84.3897 78.111C84.1925 78.207 84.0248 78.3245 83.8641 78.4371C83.4903 78.6991 83.1559 78.9335 82.5835 78.802C82.7887 79.1556 82.631 79.4146 82.4666 79.6849C82.3717 79.8412 82.274 80.0013 82.2435 80.1859C82.1359 80.832 82.3444 81.4111 82.7711 81.9015C83.562 82.8106 84.7022 82.8903 85.8135 82.968C85.944 82.9769 86.0741 82.9862 86.2033 82.9965C87.2416 83.0802 88.5189 83.2522 89.1292 84.225C89.3569 84.5886 89.333 84.8931 89.3085 85.2075ZM94.0631 82.3278C94.5685 83.1941 95.7074 85.507 95.6204 86.5904V89.3559C95.5277 90.3215 93.8961 91.972 93.0538 92.8243C92.9585 92.9206 92.8735 93.0066 92.8018 93.0803C91.0473 94.8862 89.1418 95.1173 86.5416 94.8869C84.3393 94.6917 81.4865 93.9575 79.9956 92.2067C78.5646 90.527 78.5848 87.9239 78.7967 85.8553C79.0922 82.9663 80.3596 80.3346 82.0483 77.9985C83.0374 76.6302 85.7438 73.4443 87.81 74.1413C88.1148 74.2442 88.3482 74.5171 88.5567 74.7605C88.5949 74.8053 88.6324 74.8492 88.6693 74.891C88.838 75.1098 89.005 75.3296 89.171 75.5507C89.2739 75.8413 89.4592 75.9269 89.7262 75.8081C89.9685 76.1437 90.2441 76.4519 90.5194 76.7593C91.0669 77.3716 91.6128 77.9815 91.89 78.802C92.1533 79.5816 92.7002 80.3463 93.2307 81.089C93.5316 81.5094 93.8271 81.9227 94.0631 82.3278Z" fill="#FFB1A3"/>
<path fill-rule="evenodd" clip-rule="evenodd" d="M185.708 241.623C187.211 241.035 189.065 241.31 190.641 241.338C192.621 241.374 194.605 241.524 196.578 241.678C200.368 241.975 204.138 241.85 207.931 242.204C209.814 242.38 211.698 242.543 213.582 242.703C215.232 242.843 217.148 243.281 218.795 242.966C219.475 242.836 221.311 242.196 220.97 241.2C220.708 240.432 218.642 239.958 217.969 239.74C216.385 239.225 214.75 238.856 213.15 238.397C212.328 238.162 211.509 237.908 210.643 237.99C209.908 238.059 209.134 238.608 208.39 238.545C207.289 238.452 206.722 237.069 205.914 236.459C204.629 235.488 203.676 236.007 202.69 237.077C201.961 237.868 201.267 239.065 200.071 239.136C198.55 239.226 198.254 237.922 198.925 236.816C199.544 235.797 201.227 234.752 201.317 233.482C201.375 232.68 200.091 230.532 199.352 230.226C198.109 229.713 196.353 231.073 195.23 231.49C193.268 232.219 191.265 232.864 189.278 233.522C187.92 233.972 185.904 234.012 185.647 235.604C185.326 237.597 185.717 239.621 185.708 241.623ZM107.949 210.979C108.344 210.104 108.759 209.606 107.969 208.794C107.528 208.34 106.905 208.116 106.47 207.645C105.817 206.937 104.794 205.001 106.194 204.514C107.532 204.047 108.659 205.91 109.736 206.319C111.103 206.838 111.949 205.968 112.145 204.662C112.396 202.984 112.12 201.231 112.32 199.532C112.516 197.866 113.098 196.483 113.544 194.889C113.847 193.808 114.217 192.72 112.844 192.48C111.585 192.26 110.125 192.783 108.848 192.853C106.857 192.962 104.842 193.063 102.867 193.361C100.662 193.695 100.703 195.949 100.149 197.792C98.8071 202.26 97.0075 206.645 96.1694 211.251C95.8082 213.237 96.7658 214.597 97.8807 216.159C99.2763 218.115 100.728 220.065 102.309 221.877C103.365 223.086 104.554 224.213 106.091 224.769C107.832 225.399 108.497 224.699 108.096 222.983C107.565 220.718 106.765 218.529 106.86 216.17C106.894 215.311 107.144 214.388 106.524 213.668C106.095 213.17 105.358 213.002 104.798 212.698C103.873 212.198 102.441 210.587 104.242 210.24C105.465 210.004 106.765 210.827 107.949 210.979ZM149.54 122.235C150.639 123.463 151.834 124.637 152.876 125.911C153.473 126.643 153.896 127.521 154.538 128.214C155.942 129.732 157.341 128.05 158.584 127.067C163.474 123.201 168.076 119.011 172.736 114.873C174.956 112.902 177.318 111.083 179.502 109.074C181.715 107.039 183.557 104.657 185.631 102.488C186.626 101.447 187.818 100.414 188.433 99.0841C188.958 97.9499 189.073 96.716 189.671 95.5945C190.705 93.6521 192.603 91.3972 192.168 89.0481C190.886 90.3912 188.753 95.204 186.517 92.9468C184.922 91.3358 186.551 88.9545 186.48 87.0762C184.966 87.719 185.359 90.3255 183.744 90.7866C182.871 91.0363 182.124 90.2454 181.716 89.5521C181.012 88.3535 181.27 87.0991 181.59 85.8274C181.808 84.9608 183.199 82.103 181.824 81.7504C180.631 81.4446 179.632 83.6377 179.237 84.4146C178.513 85.8397 177.952 87.3133 177.157 88.7075C175.785 91.111 174.206 93.4074 172.7 95.7283C169.598 100.508 166.061 104.994 162.423 109.375C158.537 114.055 154.331 118.467 149.54 122.235ZM183.993 137.438C183.837 141.649 180.218 144.841 177.088 147.182C173.088 150.174 169.398 153.575 164.627 155.277C162.79 155.933 160.496 155.744 159.761 157.811C159.473 158.62 159.734 158.917 160.046 159.73C160.533 161.003 160.827 162.384 161.058 163.723C161.845 168.281 161.08 172.923 158.341 176.718C156.885 178.735 155.025 180.45 153.101 182.014C151.182 183.574 149.367 185.393 147.252 186.684C142.74 189.436 137.728 191.016 132.526 191.776C129.82 192.172 127.104 192.524 124.371 192.664C122.954 192.736 121.534 192.75 120.117 192.688C119.483 192.66 117.127 192.125 116.669 192.487C116.317 192.767 116.16 194.459 116.09 194.926C115.94 195.912 115.822 196.886 115.618 197.864C115.209 199.828 114.657 202.05 115.261 204.031C115.435 204.604 115.577 205.07 116.107 205.263C116.444 205.385 117.04 205.17 117.38 205.136C118.149 205.057 118.875 205.026 119.649 205.108C122.188 205.376 124.681 206.025 127.247 205.848C132.717 205.472 138.193 205.086 143.614 204.23C146.25 203.814 148.78 203.026 151.373 202.418C153.844 201.838 156.314 201.252 158.621 200.163C163.14 198.028 167.316 195.204 171.047 191.896C175.03 188.364 177.667 184.178 180.158 179.506C182.347 175.402 184.193 171.248 184.097 166.517C184.036 163.523 183.607 159.814 185.338 157.173C186.129 155.967 187.724 154.849 189.21 155.487C191.907 156.645 189.359 158.937 188.33 160.193C186.848 162.002 187.048 164.757 186.894 166.97C186.712 169.581 186.126 171.871 185.554 174.396C184.994 176.867 186.123 179.799 186.235 182.32C186.356 185.054 186.276 187.79 186.246 190.525C186.185 195.965 186.437 201.389 186.419 206.828C186.409 209.649 186.481 212.483 186.303 215.3C186.14 217.868 185.614 220.326 185.153 222.847C184.702 225.322 184.043 228.286 184.195 230.803C190.375 228.45 196.391 225.671 202.666 223.57C200.709 221.863 200.622 219.451 200.464 217.045C200.256 213.871 199.734 210.724 199.506 207.55C199.056 201.281 199.182 194.687 199.715 188.426C200.288 181.703 201.303 175.004 201.512 168.253C201.613 165.001 201.361 161.741 200.831 158.532C200.385 155.829 199.998 152.427 198.588 150.031C197.241 147.742 194.764 146.288 192.698 144.729C189.676 142.449 186.877 139.886 183.993 137.438ZM184.368 49.5135C185.141 50.5597 186.015 51.5253 186.941 52.4394C187.895 53.3827 188.302 53.1741 189.444 52.6837C191.715 51.7076 191.672 50.5787 190.404 48.622C187.463 44.0831 186.347 38.6777 183.236 34.2318C180.17 29.851 175.711 26.3117 171.029 23.7857C166.005 21.075 160.561 20.2125 154.898 20.2934C152.004 20.3348 149.092 20.5345 146.216 20.8588C143.418 21.174 140.93 22.092 138.222 22.7852C136.859 23.134 135.453 23.4234 134.128 23.9028C132.965 24.3232 131.919 24.9724 130.745 25.3653C128.173 26.2246 125.584 27.1851 123.264 28.5905C120.995 29.9649 118.951 31.4306 116.891 33.1179C114.757 34.8653 112.903 36.896 110.596 38.4303C108.495 39.8271 106.824 41.7091 104.919 43.346C102.929 45.0566 101.093 47.1524 99.6003 49.3139C98.1404 51.4273 97.5849 54.1619 96.703 56.5453C95.6764 59.3194 94.658 62.2847 94.2712 65.2259C93.5507 70.7064 95.168 77.1123 97.2246 82.184C99.259 87.2004 102.556 91.386 106.489 95.0586C108.407 96.8499 110.499 98.4755 112.844 99.6731C114.849 100.698 117.464 102.54 119.647 101.253C120.531 100.731 121.248 100.125 122.27 99.8906C123.387 99.6343 124.481 99.7392 125.383 98.9204C126.149 98.2245 126.515 97.3844 127.521 96.9644C128.714 96.466 130.125 96.3754 131.403 96.3794C134.271 96.389 137.141 97.1068 139.879 97.9031C142.388 98.6325 144.487 99.7329 147.152 99.0662C149.133 98.5708 152.309 97.2536 152.736 94.9832C153.118 92.9538 151.645 90.3304 150.904 88.5145C149.879 86.0051 148.95 83.5364 148.307 80.8981C147.796 78.8076 146.995 75.4631 148.435 73.5522C149.851 71.6749 153.123 71.6975 155.156 72.1696C156.489 72.4791 157.713 73.1023 159.047 73.4164C160.405 73.7365 161.81 73.8972 163.195 74.0543C167.996 74.5971 174.826 73.3696 174.57 67.235C174.343 61.7674 171.33 56.2866 173.094 50.8124C173.813 48.5812 175.282 46.0006 177.728 45.4116C179.668 44.9444 182.29 45.4342 184.002 46.4488C185.375 47.2633 186.736 48.969 184.368 49.5135ZM87.9606 73.9351C83.1216 74.879 79.9212 79.98 79.0343 84.5033C78.6322 86.5529 78.4904 88.994 79.2677 90.9772C80.1635 93.2636 82.6959 94.2178 84.9305 94.6973C87.4848 95.2455 89.7483 95.0313 91.7733 93.2606C92.6635 92.4817 93.4176 91.5746 94.0574 90.5834C94.7115 89.5697 95.6213 88.8313 94.9635 87.6984C93.3329 84.8914 91.9417 82.1339 90.8679 79.046C90.3888 77.6681 89.9628 76.3217 89.6447 74.9026C89.3923 73.7757 89.2702 73.088 87.9606 73.9351ZM130.343 104.554C129.407 105.456 128.331 106.175 127.123 106.659C125.797 107.191 125.394 106.936 125.46 108.469C125.533 110.163 125.545 111.518 124.773 113.094C124.412 113.832 123.077 114.827 123.329 115.657C123.691 116.848 127.398 118.052 128.479 118.468C131.067 119.465 134.085 119.485 136.527 118.077C139.364 116.442 139.615 113.476 138.546 110.607C138.432 110.3 138.018 109.783 138.12 109.449C138.307 108.836 139.077 108.925 139.52 109.159C140.48 109.667 140.881 111.212 141.088 112.176C141.64 114.752 140.626 117.541 138.698 119.316C137.718 120.218 136.493 120.82 135.243 121.254C134.534 121.501 133.79 121.696 133.041 121.771C132.435 121.832 131.671 121.641 131.093 121.814C130.074 122.117 130.029 123.374 129.774 124.292C129.319 125.934 129.129 127.711 129.069 129.409C128.973 132.156 129.3 135.656 130.88 137.984C134.567 143.418 141.697 145.304 147.263 148.1C150.222 149.586 152.966 151.454 155.601 153.45C155.861 153.647 156.251 154.034 156.563 154.187C157.619 154.707 156.697 154.518 157.373 154.174C157.894 153.91 158.339 153.336 158.877 153.037C160.116 152.347 161.507 151.975 162.767 151.324C165.697 149.809 168.289 147.929 170.889 145.922C173.553 143.866 176.251 141.989 178.682 139.648C179.707 138.661 180.861 137.848 181.9 136.903C182.947 135.952 181.607 135.557 180.721 134.857C177.702 132.473 174.722 130.014 171.499 127.907C170.424 127.204 169.475 126.256 168.354 125.635C167.182 124.986 166.487 125.568 165.564 126.392C164.556 127.294 163.595 128.178 162.472 128.949C160.99 129.968 159.267 130.459 157.777 131.429C158.733 132.43 161.066 132.765 161.405 134.282C161.748 135.82 159.459 137.019 158.388 137.613C156.499 138.662 154.415 139.298 152.31 139.753C150.558 140.131 147.961 139.562 146.557 140.884C146.156 140.037 145.781 139.595 146.44 138.785C147.098 137.977 148.271 137.837 149.2 137.526C151.708 136.686 154.178 135.566 156.605 134.517C156.283 133.763 155.478 133.247 154.864 132.756C153.988 132.055 153.252 131.279 152.538 130.407C151.178 128.745 149.958 126.971 148.662 125.26C148.1 124.518 147.587 123.777 146.561 124.188C145.655 124.551 144.771 125.492 143.9 125.979C141.931 127.081 140.208 128.139 138.041 128.84C137.167 129.123 133.591 129.928 134.542 127.742C134.824 127.094 135.766 126.827 136.347 126.543C137.419 126.019 138.488 125.486 139.522 124.887C141.644 123.659 143.516 122.071 145.502 120.642C147.693 119.066 149.921 117.536 151.978 115.784C149.932 114.428 147.661 113.435 145.545 112.195C143.406 110.942 141.251 109.809 139.038 108.696C137.276 107.809 135.486 106.864 133.879 105.718C133.241 105.263 131.044 103.369 130.343 104.554ZM194.695 60.4619C194.426 60.5296 194.16 60.6067 193.896 60.6923C195.69 63.4356 193.709 66.8316 194.27 69.7996C195.927 68.8201 196.144 65.0101 198.659 65.7143C201.368 66.4733 200.02 69.8072 200.84 71.7141C202.12 70.5952 203.614 71.6411 204.143 72.9685C204.714 74.4069 203.922 75.7347 204.188 77.1581C204.464 78.631 205.287 77.6644 205.743 76.7958C206.324 75.6885 206.832 74.1917 206.618 72.925C206.358 71.3847 205.323 69.9523 204.683 68.5532C204.046 67.1629 203.443 65.7442 202.522 64.5107C200.777 62.1752 197.746 60.0767 194.695 60.4619ZM212.046 93.3572C210.875 90.4337 209.142 87.7565 208.034 84.8097C207.71 83.9481 207.529 82.5745 206.673 82.0436C206.11 81.6946 205.361 81.9041 204.74 81.7165C204.121 81.5296 203.469 81.084 203.025 80.6242C202.214 79.7831 201.95 78.629 200.993 77.8965C199.757 76.9512 198.802 76.5887 198.214 75.0092C197.753 73.7687 197.752 73.5868 196.365 73.8637C194.85 74.1658 193.62 73.7956 192.575 72.6126C190.806 70.6094 190.61 67.7875 191.478 65.3697C191.884 64.2388 192.591 62.9232 192.004 61.7396C191.459 60.6395 190.135 59.85 189.296 58.9734C187.175 56.7578 185.515 54.1649 183.527 51.84C183.051 51.2839 182.564 50.7291 182.197 50.0916C181.964 49.6865 181.827 48.9899 181.287 48.8753C180.357 48.6781 179.059 50.2855 178.592 50.8708C175.169 55.1554 177.618 60.9908 178.035 65.8209C178.247 68.2806 178.724 71.2293 177.633 73.5456C176.605 75.728 174.004 76.8174 171.811 77.425C168.854 78.2448 165.678 78.2086 162.668 77.7109C161.092 77.4503 159.579 77.0054 158.087 76.4416C156.561 75.8645 154.973 74.872 153.417 75.9189C151.409 77.2706 152.03 79.9823 152.471 81.9586C153.191 85.1869 154.449 88.1981 155.562 91.2996C156.497 93.9044 157.254 97.1723 155.289 99.5031C153.326 101.831 150.071 103.288 147.042 103.167C140.761 102.917 135.028 98.2338 128.61 100.149C129.815 100.648 131.09 100.941 132.269 101.512C133.691 102.2 135.007 103.116 136.388 103.882C139.039 105.352 141.699 106.802 144.289 108.377C146.63 109.8 148.843 111.359 151.077 112.937C153.861 114.902 155.327 112.725 157.113 110.602C161.011 105.968 164.723 101.061 168.265 96.1496C171.344 91.8803 174.203 87.4225 176.43 82.6529C177.227 80.9462 178.568 78.0513 180.9 78.3879C182.97 78.6868 184.177 81.1843 185.247 82.713C185.994 82.1781 186.634 81.4625 187.642 81.757C188.479 82.0008 189.057 82.8587 189.427 83.5905C189.681 84.0936 189.855 85.7886 190.28 86.0436C190.583 86.2252 191.74 85.8351 192.255 85.9543C194.02 86.362 194.584 88.6304 194.566 90.2046C194.541 92.3747 193.635 94.5459 192.891 96.5554C191.226 101.06 188.373 104.581 185.227 108.14C182.035 111.752 178.693 115.026 175.092 118.232C174.204 119.023 173.324 119.823 172.458 120.638C171.747 121.307 170.622 122.002 170.066 122.788C169.037 124.241 171.79 124.901 172.814 125.433C177.221 127.721 181.283 130.735 185.164 133.809C189.166 136.978 193.191 140.16 197.037 143.519C200.799 146.804 204.353 150.306 208.315 153.361C212.386 156.5 216.651 159.398 220.834 162.384C225.02 165.374 229.094 168.519 233.276 171.513C237.363 174.438 241.751 176.946 246.049 179.543C248.298 180.902 250.558 182.241 252.817 183.582C254.644 184.667 256.627 186.353 258.793 186.49C260.744 186.614 262.595 187.332 263.761 185.21C264.646 183.599 264.28 181.384 263.505 179.819C262.559 177.909 261.078 176.154 259.889 174.386C258.522 172.354 257.253 170.263 255.903 168.221C254.609 166.262 253.171 164.454 251.727 162.609C250.263 160.737 249.153 158.628 247.848 156.647C245.06 152.411 242.193 148.252 239.55 143.922C233.488 133.99 228.059 123.737 222.87 113.331C222.413 112.413 211.748 93.5203 212.046 93.3572ZM203.511 154.418C206.769 165.68 204.89 177.131 204.222 188.588C203.884 194.381 203.833 200.21 203.683 206.01C203.61 208.83 203.615 211.652 203.732 214.47C203.791 215.888 203.895 217.301 203.996 218.716C204.085 219.968 203.75 221.351 203.907 222.559C204.109 224.105 207.18 224.409 206.237 226.394C205.604 227.725 203.388 227.928 202.2 228.49C202.728 229.101 203.554 230.016 204.435 230.074C205.227 230.125 205.84 229.438 206.551 229.178C207.182 228.947 208.05 228.723 208.449 229.459C208.866 230.231 207.992 231.088 207.647 231.686C208.822 231.913 209.634 231.212 210.695 231.276C211.81 231.344 211.86 232.441 212.594 233.076C213.432 233.802 214.895 233.959 215.928 234.264C217.131 234.619 218.339 235.06 219.434 235.677C221.391 236.78 223.072 238.863 223.796 240.996C224.545 243.206 223.375 245.118 221.631 246.474C220.981 246.979 220.05 247.566 219.189 247.294C218.204 246.983 218.05 246.182 216.85 246.241C215.772 246.294 214.749 246.725 213.666 246.78C212.074 246.861 210.483 246.571 208.889 246.632C202.456 246.879 196.023 246.934 189.601 246.316C187.939 246.156 186.31 246.025 184.672 245.972C183.399 245.932 183.292 244.982 183.076 243.789C182.555 240.909 183.708 238.074 183.137 235.275C183.175 235.46 182.273 234.979 182.165 234.888C181.502 234.331 181.281 233.539 181.084 232.716C180.559 230.526 180.564 228.294 180.727 226.06C181.096 220.989 182.039 215.966 181.962 210.868C181.923 208.299 182.001 205.736 182.001 203.168C182.002 200.809 182.216 198.48 182.236 196.137C182.279 191.001 182.82 185.922 182.971 180.791C181.902 181.831 181.334 183.281 180.655 184.579C179.82 186.175 178.888 187.754 177.868 189.239C175.762 192.306 172.935 194.802 170.008 197.064C164.42 201.382 158.35 204.725 151.504 206.557C144.094 208.539 136.599 209.877 128.96 210.629C127.192 210.803 125.404 210.897 123.633 210.725C122.473 210.612 120.587 209.675 119.485 210.151C118.232 210.691 117.98 211.991 116.338 211.626C115.711 211.487 115.257 211.069 114.708 210.786C113.901 210.371 113.869 210.658 113.098 210.711C112.239 210.77 111.724 210.34 110.975 211.032C110.339 211.62 110.401 212.032 110.981 212.581C111.798 213.354 113.105 213.484 113.922 214.291C114.717 215.076 114.575 216.041 113.346 216.052C112.111 216.064 111.012 215.184 109.805 215.07C110.062 218.643 111.137 222.634 109.945 226.139C109.392 227.765 108.206 228.813 106.436 228.801C103.475 228.782 100.878 226.059 99.0946 223.937C98.1088 222.764 97.3096 221.446 96.358 220.244C95.3848 219.016 94.3413 217.78 93.7841 216.294C93.1914 214.714 93.3644 213.127 93.6958 211.505C94.1059 209.496 94.487 207.467 94.9828 205.477C95.944 201.619 97.8774 198.097 98.8536 194.251C99.2228 192.796 99.2181 191.088 100.15 189.841C101.137 188.519 102.672 188.434 104.194 188.519C106.078 188.624 107.961 188.832 109.836 189.045C111.019 189.18 113.613 190.033 114.576 189.306C114.908 189.056 114.908 188.399 115.296 188.173C115.67 187.954 116.274 188.111 116.682 188.142C118.706 188.292 120.747 188.474 122.775 188.533C130.312 188.753 138.266 187.579 144.995 184.077C148.118 182.452 150.497 179.895 153.007 177.479C155.475 175.103 157.625 172.546 158.289 169.097C158.896 165.949 158.666 162.183 157.659 159.135C156.678 156.167 153.197 154.368 150.663 152.904C147.15 150.874 143.42 149.192 139.634 147.735C139.033 147.504 138.303 147.209 137.642 147.327C136.832 147.472 136.287 148.174 135.55 148.484C134.674 148.853 133.599 148.855 132.675 149.07C131.778 149.278 130.904 149.565 129.991 149.703C127.115 150.137 123.074 149.79 120.698 147.953C116.813 144.951 119.16 140.702 120.408 137.048C119.089 137.003 117.99 137.312 116.73 136.747C115.476 136.185 114.495 135.189 113.922 133.941C112.882 131.67 113.483 129.062 113.79 126.694C113.929 125.624 114.087 124.562 114.496 123.556C114.812 122.778 115.331 122.035 115.523 121.212C115.734 120.305 115.46 120.252 114.704 119.818C113.538 119.15 112.698 118.381 111.984 117.207C110.586 114.908 110.552 112.399 111.697 109.981C112.161 109.003 113.267 107.657 113.142 106.514C113.033 105.53 111.92 104.764 111.265 104.121C109.241 102.132 107.089 100.296 104.844 98.5618C103.796 97.751 102.64 97.0152 101.687 96.0942C100.988 95.4195 100.279 93.9516 99.3234 93.5966C98.3672 93.2417 97.7303 94.3095 97.0643 94.8819C96.026 95.7741 95.0309 96.8007 93.8993 97.574C91.87 98.9613 89.3538 98.7016 87.0618 98.2587C84.6679 97.7955 82.4476 96.9804 80.4062 95.6353C79.5954 95.1007 78.6481 94.0153 77.6497 93.9283C76.5832 93.8357 75.4245 94.8959 74.6621 95.5324C72.6722 97.1942 72.0749 99.7754 70.9158 102.008C69.6215 104.501 69.0717 107.089 69.424 109.892C69.7407 112.413 70.7119 114.318 72.1566 116.355C72.4554 116.776 73.155 117.572 72.6437 118.038C72.0181 118.608 70.7365 117.465 70.3165 117.096C66.1445 113.427 63.7735 107.898 65.1278 102.363C65.8546 99.3916 67.2767 96.642 68.9283 94.085C69.6305 92.9973 70.3155 91.9099 71.5367 91.3551C72.9269 90.7239 74.5021 90.7989 75.9869 90.6475C74.9599 85.6199 74.6385 80.149 77.7945 75.7672C80.2163 72.4047 85.1762 69.4626 89.1068 72.1892C88.9458 68.4828 88.4175 64.9629 89.404 61.3132C89.8459 59.678 90.4515 58.0865 91.1959 56.5642C91.9251 55.0727 92.9321 53.8077 93.5212 52.2551C95.8454 46.1304 100.305 40.6596 105.068 36.2638C109.883 31.8205 114.607 26.3998 120.672 23.6199C126.999 20.7194 133.443 18.1129 140.303 16.795C147.424 15.427 154.743 15.1462 161.916 16.4414C168.204 17.5769 174.023 21.3947 178.781 25.5105C184.211 30.2071 187.716 35.869 190.489 42.4276C191.098 43.8683 191.685 45.3213 192.432 46.6982C193.261 48.2259 194.326 49.6466 194.935 51.2859C195.479 52.7478 195.57 54.3339 194.602 55.6401C193.921 56.5585 192.525 56.7657 191.93 57.6058C191.629 58.0294 191.66 58.4325 192.32 58.5587C193.002 58.6889 193.327 57.9282 193.817 57.623C195.038 56.8633 196.76 57.5108 197.994 57.9421C200.92 58.9651 203.211 60.8026 204.962 63.3492C206.638 65.7867 207.751 68.5558 208.857 71.2815C209.555 73.0011 210.219 74.7094 210.604 76.5312C210.748 77.2165 210.95 79.0746 209.867 78.2604C209.428 77.9304 208.8 80.4352 208.918 80.834C209.33 82.2212 210.799 83.5218 211.664 84.6451C213.696 87.2854 215.058 90.2431 216.491 93.2294C219.597 99.696 223.055 105.974 226.378 112.328C233.145 125.269 240.539 137.713 248.296 150.083C252.138 156.211 256.1 162.235 260.208 168.189C262.021 170.816 263.839 173.445 265.612 176.1C267.119 178.355 268.607 180.867 268.219 183.682C267.864 186.259 266.332 188.329 263.856 189.172C262.529 189.624 260.954 190.145 259.534 190.006C257.981 189.854 256.611 188.816 255.316 188.036C249.368 184.451 243.418 180.869 237.466 177.291C230.809 173.289 224.721 168.537 218.37 164.088C215.138 161.824 211.806 159.784 208.439 157.734C207.68 157.273 204.24 153.967 203.511 154.418Z" fill="#666875"/>
<path fill-rule="evenodd" clip-rule="evenodd" d="M145.871 165.811C144.245 168.205 142.536 170.455 140.247 172.271C137.836 174.185 135.314 175.735 132.622 177.22C127.874 179.838 121.51 182.157 115.996 180.97C114.428 180.633 111.919 179.26 113.282 177.301C113.968 176.317 115.437 176.574 116.478 176.628C118.154 176.715 119.62 176.811 121.227 176.247C124.178 175.21 127.15 174.232 130.032 173.012C132.823 171.829 135.271 170.208 137.832 168.615C140.234 167.122 142.066 165.334 144.176 163.528C144.754 163.033 145.748 162.168 146.294 163.13C146.689 163.825 146.088 165.131 145.871 165.811Z" fill="#666875"/>
<path fill-rule="evenodd" clip-rule="evenodd" d="M211.574 50.8237C211.392 51.8606 210.901 53.9239 209.442 53.642C207.581 53.2827 208.497 49.639 208.469 48.4022C208.346 43.0127 206.588 37.8303 203.986 33.1575C202.693 30.8344 201.099 28.6861 199.923 26.2965C199.695 25.8322 199.001 24.6807 199.505 24.177C200.11 23.5721 201.269 24.4849 201.695 24.9166C203.343 26.5859 204.656 29.0884 205.927 31.0527C207.626 33.6749 209.126 36.4447 210.203 39.3852C211.503 42.937 212.234 47.0565 211.574 50.8237Z" fill="#666875"/>
<path fill-rule="evenodd" clip-rule="evenodd" d="M215.056 33.5886C215.23 34.5233 216.081 37.0663 214.564 37.2918C212.844 37.5474 212.31 33.3104 211.833 32.1878C211.581 31.596 210.24 28.9896 210.939 28.4223C212.394 27.2411 214.711 32.8366 215.056 33.5886Z" fill="#666875"/>
<path fill-rule="evenodd" clip-rule="evenodd" d="M134.123 159.704C132.491 161.191 130.596 161.104 128.536 160.962C127.49 160.89 125.067 160.271 126.751 158.973C127.63 158.296 134.531 157.829 134.123 159.704Z" fill="#666875"/>
<path fill-rule="evenodd" clip-rule="evenodd" d="M261.309 186.934C261.425 186.703 262.404 185.595 262.615 186.043C262.815 186.465 261.567 186.921 261.309 186.934Z" fill="#666875"/>
<path fill-rule="evenodd" clip-rule="evenodd" d="M131.484 104.72C131.283 105.134 130.445 104.772 130.156 104.835C130.549 103.995 131.015 104.175 131.484 104.72Z" fill="#666875"/>
<path fill-rule="evenodd" clip-rule="evenodd" d="M194.57 60.7617C194.483 61.0938 194.396 61.4258 194.309 61.7578C194.175 61.5091 194.04 61.2604 193.906 61.0114C194.127 60.9284 194.349 60.8451 194.57 60.7617Z" fill="#666875"/>
<path fill-rule="evenodd" clip-rule="evenodd" d="M196.173 123.494C198.268 123.705 200.37 123.812 202.473 123.877C204.248 123.931 204.977 123.596 205.204 121.751C205.473 119.563 205.565 117.356 205.833 115.168C205.955 114.174 206.919 112.187 205.758 111.655C204.784 111.209 203.266 111.848 202.246 111.923C201.11 112.006 199.396 111.66 198.392 112.333C197.319 113.053 197.553 115.574 197.37 116.757C197.021 119.013 196.601 121.253 196.173 123.494ZM195.174 112.87C193.275 113.013 191.371 113.127 189.477 113.329C188.635 113.419 186.929 113.836 186.219 113.223C184.552 111.784 190.782 111.279 191.489 111.165C192.681 110.974 194.719 111.228 195.483 110.104C196.238 108.991 196.047 107.122 196.243 105.831C196.537 103.888 196.873 101.947 197.069 99.9909C197.135 99.3335 197.041 97.1616 197.735 96.8389C199.331 96.0972 198.829 103.741 198.803 104.315C198.758 105.301 198.709 106.292 198.571 107.27C198.494 107.822 198.221 108.568 198.389 109.121C198.87 110.71 201.604 109.794 202.849 109.667C204.244 109.525 206.399 110.065 206.86 108.344C207.441 106.18 207.356 103.723 207.572 101.497C207.631 100.882 207.786 96.2844 208.921 96.6407C210.188 97.0388 209.693 100.88 209.682 101.87C209.669 102.986 209.673 104.103 209.597 105.217C209.53 106.218 209.247 107.445 209.456 108.437C209.822 110.176 211.884 109.251 212.482 110.634C213.051 111.949 209.952 110.918 209.373 111.37C208.509 112.044 208.716 114.862 208.593 115.848C208.322 118.015 207.802 120.265 207.632 122.426C207.499 124.132 208.87 123.905 210.265 123.782C211.462 123.676 212.777 123.391 213.976 123.551C214.939 123.679 216.286 124.567 214.883 125.158C212.69 126.082 208.223 124.194 207.121 127C206.914 127.529 205.946 133.668 204.731 130.638C204.223 129.371 205.467 127.384 204.14 126.413C203.681 126.077 202.996 126.136 202.462 126.099C201.148 126.007 199.826 125.976 198.51 125.949C197.197 125.922 196.018 125.657 195.511 127.095C195.116 128.215 195.16 129.469 194.844 130.615C194.607 131.474 193.831 132.979 193.025 131.573C192.495 130.649 192.901 129.036 193.005 128.032C193.057 127.529 193.357 126.489 192.976 126.067C192.566 125.613 191.47 125.859 190.952 125.9C189.457 126.018 186.673 126.738 185.528 125.382C184.571 124.247 186.561 124.226 187.344 124.149C188.15 124.07 188.957 123.997 189.762 123.912C190.649 123.818 191.823 123.943 192.658 123.665C194.06 123.199 193.96 121.293 194.052 120.057C194.232 117.642 194.775 115.256 195.174 112.87Z" fill="#666875"/>
<path fill-rule="evenodd" clip-rule="evenodd" d="M219.805 118.027C219.691 119.422 219.54 120.985 219.09 122.31C218.749 123.311 218.062 123.616 217.827 122.341C217.679 121.532 218.666 116.977 219.805 118.027Z" fill="#666875"/>
<path fill-rule="evenodd" clip-rule="evenodd" d="M131.294 108.847C130.735 108.446 128.087 106.334 130.001 106.251C130.978 106.208 133.084 107.816 133.144 108.707C133.159 108.932 132.678 109.049 132.704 109.267C132.754 109.682 133.368 109.878 133.566 110.207C134.002 110.935 133.821 112.371 133.258 113.063C131.973 114.639 130.547 111.97 131.541 111.447C131.32 111.563 128.347 110.052 128.235 109.711C127.624 107.84 131.144 109.603 131.294 108.847Z" fill="#666875"/>
<path fill-rule="evenodd" clip-rule="evenodd" d="M135.961 116.207C135.282 116.228 133.918 116.181 133.41 115.696C132.464 114.795 134.308 114.675 134.848 114.255C135.604 113.667 135.753 111.754 136.94 112.938C138.118 114.112 137.082 115.478 135.961 116.207Z" fill="#666875"/>
<path fill-rule="evenodd" clip-rule="evenodd" d="M126.172 111.239C127.4 111.059 130.131 113.706 128.806 113.882C127.929 113.999 126.363 111.946 126.172 111.239Z" fill="#666875"/>
</svg>
